<?xml version="1.0" encoding="utf-8"?>
<!-- Generator: Adobe Illustrator 26.5.0, SVG Export Plug-In . SVG Version: 6.00 Build 0)  -->
<svg version="1.1" id="layer" xmlns="http://www.w3.org/2000/svg" xmlns:xlink="http://www.w3.org/1999/xlink" x="0px" y="0px"
	 viewBox="0 0 704 170" style="enable-background:new 0 0 704 170;" xml:space="preserve">
<style type="text/css">
	.st0{fill:#FFFFFF;}
</style>
<path class="st0" d="M95.1,112.8c-3.3,3.1-7.7,5.1-12.6,5.2c-15,0-18.5-13-18.5-30.3s3.2-30.3,18.2-30.3c4.8,0.1,9.1,2.1,12.3,5.2
	l8.2,14.4h0.5V57h-0.5l-7.8,4.2c-3.4-3-7.8-4.9-12.6-5c-14.5,0-31.6,11.5-31.6,31.5s16.8,31.5,31.8,31.5c5-0.2,9.5-2,13-5l8.1,4.1
	h0.5V97.5h-0.5L95.1,112.8z"/>
<path class="st0" d="M143.9,56.1c-17,0.6-30.6,14.4-30.8,31.5c0.2,17.1,13.8,30.9,30.8,31.5c17.1-0.6,30.7-14.4,30.9-31.5
	C174.5,70.5,160.9,56.7,143.9,56.1L143.9,56.1z M143.9,117.9c-14.4,0-17.6-12.1-17.6-30.3c0-18.3,3.3-30.3,17.6-30.3
	c14.3,0,17.6,12.1,17.6,30.3C161.6,105.7,158.4,117.9,143.9,117.9z"/>
<path class="st0" d="M224.1,58.2h7.7v38.7h-0.2l-27-39.6h-23.2v1h7.6V117h-7.6v1h16.5v-1h-7.5V58.2h0.2l42.1,60.9h0.3V58.2h7.7v-1
	h-16.6L224.1,58.2L224.1,58.2z"/>
<path class="st0" d="M273.5,57.3h-26.1v1h7.6V117h-7.6v1h26.1c13,0,35.2-5.8,35.2-30.7C308.7,62.4,286.5,57.3,273.5,57.3L273.5,57.3
	z M273.2,117h-6.3V58.2h6.3c15.4,0,22.4,10.8,22.4,29.4S288.6,117,273.2,117z"/>
<path class="st0" d="M357.1,117h-22.2V85.9h11.2c3.7,3,8,11.8,8,11.8h0.5V73.1h-0.5c0,0-4.3,8.7-8,11.8h-11.2V58.2h19.9
	c5.8,3.9,10.8,15.4,10.8,15.4h0.5V57.3h-50.7v1h7.6V117h-7.6v1h52.4V97.6h-0.5C367.3,97.6,362.3,111.2,357.1,117L357.1,117z"/>
<path class="st0" d="M356.1,44.4l-1.5-4.2l1.3-7.1l-0.3-0.3L337,48.7l0.2,0.3L356.1,44.4L356.1,44.4z"/>
<path class="st0" d="M476.4,57.2h-16.6v1h7.7v38.7h-0.2l-27-39.6h-23.2v1h7.6V117h-7.6v1h16.5v-1H426V58.2h0.2l42.2,60.9h0.3V58.2
	h7.7V57.2L476.4,57.2z"/>
<path class="st0" d="M508.1,55.2h-0.4L482.3,117h-7v1h15.8v-1h-7.6l9.5-23.2h19.1l10,23.2h-7.6v1h27.6v-1h-7L508.1,55.2z
	 M493.4,92.9l8.9-21.8l9.4,21.8H493.4z"/>
<path class="st0" d="M576.3,82.3l-11.6-4.1c-5.8-2-10.5-4.9-10.5-10.7c0-6.7,5-10.3,12.8-10.3c0.2,0,0.5,0,0.8,0
	c3.9,0,7.4,1.6,9.9,4.1l8.3,14.1h0.4V56.3H586l-7.9,4c-2.8-2.5-6.5-4-10.6-4c-0.2,0-0.3,0-0.5,0c-11.1,0-18.5,7.5-18.6,18.1
	c0,8.7,5.9,13,12.5,15.5l11.8,4.3c6.2,2.3,10.5,5.1,10.5,11.5c0,6.1-3.9,12.1-14.1,12.2c-5.2-0.1-9.9-2.1-13.5-5.4l-9-15.5h-0.4
	l0.4,21.1h0.4l8.1-4.3c3.8,3.1,8.6,5.1,13.9,5.3c12.9,0,21.3-9.4,21.3-19.6C590.3,89.3,583.6,84.8,576.3,82.3L576.3,82.3z"/>
<path class="st0" d="M596.1,57.3v18.8h0.4c0,0,5.5-12.1,10.7-17.9h10.2V117h-9.2v1h30.3v-1h-9.2V58.2h10.2
	c5.1,5.8,10.7,17.9,10.7,17.9h0.4V57.3L596.1,57.3L596.1,57.3z"/>
</svg>
