<?xml version="1.0" encoding="UTF-8"?><svg id="layer" xmlns="http://www.w3.org/2000/svg" viewBox="0 0 708.66 311.81"><defs><style>.cls-1{fill:#fff;}</style></defs><path class="cls-1" d="m98.28,181.51c-3.3,3.1-7.7,5.1-12.6,5.2-15,0-18.5-13-18.5-30.3s3.2-30.3,18.2-30.3c4.8.1,9.1,2.1,12.3,5.2l8.2,14.4h.5v-20h-.5l-7.8,4.2c-3.4-3-7.8-4.9-12.6-5-14.5,0-31.6,11.5-31.6,31.5s16.8,31.5,31.8,31.5c5-.2,9.5-2,13-5l8.1,4.1h.5v-20.8h-.5l-8.5,15.3Z"/><path class="cls-1" d="m147.08,124.81c-17,.6-30.6,14.4-30.8,31.5.2,17.1,13.8,30.9,30.8,31.5,17.1-.6,30.7-14.4,30.9-31.5-.3-17.1-13.9-30.9-30.9-31.5h0Zm0,61.8c-14.4,0-17.6-12.1-17.6-30.3s3.3-30.3,17.6-30.3,17.6,12.1,17.6,30.3c.1,18.1-3.1,30.3-17.6,30.3Z"/><path class="cls-1" d="m227.28,126.91h7.7v38.7h-.2l-27-39.6h-23.2v1h7.6v58.7h-7.6v1h16.5v-1h-7.5v-58.8h.2l42.1,60.9h.3v-60.9h7.7v-1h-16.6v1h0Z"/><path class="cls-1" d="m276.68,126.01h-26.1v1h7.6v58.7h-7.6v1h26.1c13,0,35.2-5.8,35.2-30.7s-22.2-30-35.2-30h0Zm-.3,59.7h-6.3v-58.8h6.3c15.4,0,22.4,10.8,22.4,29.4s-7,29.4-22.4,29.4Z"/><path class="cls-1" d="m360.28,185.71h-22.2v-31.1h11.2c3.7,3,8,11.8,8,11.8h.5v-24.6h-.5s-4.3,8.7-8,11.8h-11.2v-26.7h19.9c5.8,3.9,10.8,15.4,10.8,15.4h.5v-16.3h-50.7v1h7.6v58.7h-7.6v1h52.4v-20.4h-.5s-5,13.6-10.2,19.4h0Z"/><path class="cls-1" d="m359.28,113.11l-1.5-4.2,1.3-7.1-.3-.3-18.6,15.9.2.3,18.9-4.6h0Z"/><path class="cls-1" d="m479.58,125.91h-16.6v1h7.7v38.7h-.2l-27-39.6h-23.2v1h7.6v58.7h-7.6v1h16.5v-1h-7.6v-58.8h.2l42.2,60.9h.3v-60.9h7.7v-1h0Z"/><path class="cls-1" d="m511.28,123.91h-.4l-25.4,61.8h-7v1h15.8v-1h-7.6l9.5-23.2h19.1l10,23.2h-7.6v1h27.6v-1h-7l-27-61.8Zm-14.7,37.7l8.9-21.8,9.4,21.8s-18.3,0-18.3,0Z"/><path class="cls-1" d="m579.48,151.01l-11.6-4.1c-5.8-2-10.5-4.9-10.5-10.7,0-6.7,5-10.3,12.8-10.3h.8c3.9,0,7.4,1.6,9.9,4.1l8.3,14.1h.4v-19.1h-.4l-7.9,4c-2.8-2.5-6.5-4-10.6-4h-.5c-11.1,0-18.5,7.5-18.6,18.1,0,8.7,5.9,13,12.5,15.5l11.8,4.3c6.2,2.3,10.5,5.1,10.5,11.5s-3.9,12.1-14.1,12.2c-5.2-.1-9.9-2.1-13.5-5.4l-9-15.5h-.4l.4,21.1h.4l8.1-4.3c3.8,3.1,8.6,5.1,13.9,5.3,12.9,0,21.3-9.4,21.3-19.6,0-10.2-6.7-14.7-14-17.2h0Z"/><path class="cls-1" d="m599.28,126.01v18.8h.4s5.5-12.1,10.7-17.9h10.2v58.8h-9.2v1h30.3v-1h-9.2v-58.8h10.2c5.1,5.8,10.7,17.9,10.7,17.9h.4v-18.8h-54.5Z"/></svg>