<?xml version="1.0" encoding="UTF-8"?><svg id="layer" xmlns="http://www.w3.org/2000/svg" viewBox="0 0 708.66 311.81"><defs><style>.cls-1{fill:#fff;}</style></defs><path class="cls-1" d="m483.66,194.2h33.5v31.84h-88.39V85.79h88.39v31.84h-33.5v15.33h33.5v32.23h-33.5v29.01h0Z"/><path class="cls-1" d="m362.25,117.63h-34.09v-31.84h95.42c0,.59.1,1.17.1,1.66v26.27c0,.88-.2,1.76-.59,2.64-12.01,25.3-24.12,50.59-36.14,75.89-.29.59-.49,1.17-.88,2.05h37.51v31.94h-98.74c0-.59-.1-1.17-.1-1.76v-26.76c0-.98.2-1.95.68-2.73,11.82-24.81,23.73-49.71,35.65-74.52.39-.98.68-1.76,1.17-2.83Z"/><path class="cls-1" d="m647.26,115.58c0-2.44-.1-4.88-.39-7.33-1.27-11.04-7.33-18.26-18.17-20.8-4.79-1.17-9.57-1.76-14.46-1.76-29.89-.2-59.68-.1-89.56-.1-.68,0-1.27.1-2.05.1v140.55h1.86c30.47,0,60.95,0,91.42-.1,3.71-.1,7.33-.39,10.94-1.17,10.35-1.86,16.99-7.91,19.14-18.36.78-3.91,1.27-8.01,1.27-12.01.1-26.27.1-52.64,0-79.02Zm-55.77,69.44v1.47c-.29,5.47-2.54,7.52-8.01,7.52h-5.86v-76.38c3.42.1,6.74-.49,10.06.78,1.95.78,2.93,2.34,3.32,4.3.29,1.37.49,2.73.49,4.2.1,19.34.1,38.68,0,58.11h0Z"/><path class="cls-1" d="m185.86,115.87c0-2.83-.2-5.76-.68-8.59-1.56-10.45-7.33-17.39-17.68-19.73-4.88-1.17-9.86-1.76-14.85-1.86-29.79-.2-59.58-.1-89.37-.1h-1.95v140.65h91.13c3.71,0,7.33-.29,10.94-.78,12.11-1.66,18.85-7.91,21.29-19.73.78-3.81,1.17-7.72,1.17-11.62.1-26.08.1-52.16,0-78.23Zm-55.77,68.27c0,1.66-.2,3.42-.59,5.08-.59,2.83-2.25,4.4-5.18,4.59-2.64.2-5.37,0-8.2,0v-76.48c3.22.2,6.35.2,9.28.78,2.93.49,3.91,3.03,4.4,5.66.2,1.27.29,2.54.29,3.81v56.55Z"/><path class="cls-1" d="m296.62,85.69h-86.05l-24.71,140.35h56.65l3.13-30.28c5.08,0,9.96,0,14.85.1.39,0,.98.78.98,1.37.59,5.08,1.07,10.26,1.56,15.33.49,4.49.98,9.08,1.47,13.58h56.84l-24.71-140.45Zm-48.84,79.02l5.66-46.1h.39l5.47,46.1h-11.53Z"/></svg>