<?xml version="1.0" encoding="utf-8"?>
<!-- Generator: Adobe Illustrator 26.5.0, SVG Export Plug-In . SVG Version: 6.00 Build 0)  -->
<svg version="1.1" id="layer" xmlns="http://www.w3.org/2000/svg" xmlns:xlink="http://www.w3.org/1999/xlink" x="0px" y="0px"
	 viewBox="0 0 692 240" style="enable-background:new 0 0 692 240;" xml:space="preserve">
<style type="text/css">
	.st0{fill:#FFFFFF;}
</style>
<path class="st0" d="M478.9,160.1h34.3v32.6h-90.5V49.1h90.5v32.6h-34.3v15.7h34.3v33h-34.3V160.1z"/>
<path class="st0" d="M354.6,81.7h-34.9V49.1h97.7c0,0.6,0.1,1.2,0.1,1.7c0,9,0,17.9,0,26.9c0,0.9-0.2,1.8-0.6,2.7
	c-12.3,25.9-24.7,51.8-37,77.7c-0.3,0.6-0.5,1.2-0.9,2.1h38.4v32.7H316.3c0-0.6-0.1-1.2-0.1-1.8c0-9.1,0-18.3,0-27.4
	c0-1,0.2-2,0.7-2.8c12.1-25.4,24.3-50.9,36.5-76.3C353.8,83.6,354.1,82.8,354.6,81.7z"/>
<path class="st0" d="M646.4,79.6c0-2.5-0.1-5-0.4-7.5c-1.3-11.3-7.5-18.7-18.6-21.3c-4.9-1.2-9.8-1.8-14.8-1.8
	c-30.6-0.2-61.1-0.1-91.7-0.1c-0.7,0-1.3,0.1-2.1,0.1v143.9h1.9c31.2,0,62.4,0,93.6-0.1c3.8-0.1,7.5-0.4,11.2-1.2
	c10.6-1.9,17.4-8.1,19.6-18.8c0.8-4,1.3-8.2,1.3-12.3C646.5,133.6,646.5,106.6,646.4,79.6z M589.3,150.7c0,0.5,0,1,0,1.5
	c-0.3,5.6-2.6,7.7-8.2,7.7h-6V81.7c3.5,0.1,6.9-0.5,10.3,0.8c2,0.8,3,2.4,3.4,4.4c0.3,1.4,0.5,2.8,0.5,4.3
	C589.4,111,589.4,130.8,589.3,150.7L589.3,150.7z"/>
<path class="st0" d="M174,79.9c0-2.9-0.2-5.9-0.7-8.8c-1.6-10.7-7.5-17.8-18.1-20.2c-5-1.2-10.1-1.8-15.2-1.9
	c-30.5-0.2-61-0.1-91.5-0.1h-2v144h2.6c30.2,0,60.5,0,90.7,0c3.8,0,7.5-0.3,11.2-0.8c12.4-1.7,19.3-8.1,21.8-20.2
	c0.8-3.9,1.2-7.9,1.2-11.9C174.1,133.3,174.1,106.6,174,79.9z M116.9,149.8c0,1.7-0.2,3.5-0.6,5.2c-0.6,2.9-2.3,4.5-5.3,4.7
	c-2.7,0.2-5.5,0-8.4,0V81.4c3.3,0.2,6.5,0.2,9.5,0.8c3,0.5,4,3.1,4.5,5.8c0.2,1.3,0.3,2.6,0.3,3.9
	C116.9,111.3,116.9,130.5,116.9,149.8z"/>
<path class="st0" d="M287.4,49h-88.1L174,192.7h58l3.2-31c5.2,0,10.2,0,15.2,0.1c0.4,0,1,0.8,1,1.4c0.6,5.2,1.1,10.5,1.6,15.7
	c0.5,4.6,1,9.3,1.5,13.9h58.2L287.4,49z M237.4,129.9l5.8-47.2h0.4l5.6,47.2H237.4z"/>
</svg>
