<?xml version="1.0" encoding="utf-8"?>
<!-- Generator: Adobe Illustrator 26.5.0, SVG Export Plug-In . SVG Version: 6.00 Build 0)  -->
<svg version="1.1" id="layer" xmlns="http://www.w3.org/2000/svg" xmlns:xlink="http://www.w3.org/1999/xlink" x="0px" y="0px"
	 viewBox="0 0 672 225" style="enable-background:new 0 0 672 225;" xml:space="preserve">
<style type="text/css">
	.st0{fill:#FFFFFF;}
</style>
<path id="Logo" class="st0" d="M636,36.1v24.8h-78.3v40.2h67v24h-67v40.2H636v24.4H534.2V36.1H636z M433.7,36.1
	c42,0,75.1,34.6,75.1,76.8c0,42.7-33.1,76.8-75.1,76.8l0,0h-50.9V36.1H433.7z M294,36.1l63.4,153.7H332l-10.5-26.4h-70.3l-10.5,26.4
	h-25.8l63.8-153.7L294,36.1L294,36.1z M55,36.1l57.7,66.3l58.1-66.3h18.6v153.7H166V79.2l-53.3,60.2L59.8,79.2v110.6H36V36.1H55z
	 M434.5,60.9h-28.3V165h28.3c27.9,0,50.5-23.2,50.5-52C485,84.5,462.4,60.9,434.5,60.9L434.5,60.9z M286.3,79.6L262.1,139h48
	L286.3,79.6z"/>
</svg>
