<?xml version="1.0" encoding="UTF-8"?><svg id="Layer_1" xmlns="http://www.w3.org/2000/svg" viewBox="0 0 708.66 311.81"><defs><style>.cls-1{fill:#fff;}</style></defs><path class="cls-1" d="m424.43,221.8c16.95,0,26.98-15.93,29.78-21.84h-2.57c-3.27,4.12-10.03,12.34-21.82,12.34-14.38,0-20.03-13.06-20.03-26.98,0-14.71,5.12-27.21,14.38-27.21,6.92,0,10.28,6.92,9.24,15.4l-25.68,8.18-.25,3.87,38.54-11.56c0-11.05-7.46-20.8-20.57-20.8-15.4,0-28,16.19-28,35.94.02,18.99,11.07,32.68,26.98,32.66m58.57-46.74s1.81-10.79,10.28-10.79c6.16,0,10.03,6.16,10.03,6.16l5.4-15.68c-1.71-1.25-3.78-1.88-5.91-1.78-13.62,0-21.84,16.95-21.84,16.95l2.04,5.14Zm57.04,0s1.81-10.79,10.28-10.79c6.16,0,10.03,6.16,10.03,6.16l5.4-15.68c-1.71-1.25-3.8-1.88-5.91-1.78-13.59,0-21.82,16.95-21.82,16.95l2.01,5.14Zm37.75,80.92c8.48,0,16.44-4.63,22.09-17.74l11.81-28,19.27-44.12c1.78-3.84,4.89-5.91,9.5-8.18l4.35-2.06h-27.24l3.59,2.06c4.12,2.32,5.91,4.91,4.35,8.75l-19.01,43.52-8.73,20.8c-3.87,9.52-7.97,13.62-15.68,13.62-10.28,0-17.46-7.71-17.46-7.71l4.91,17.21c2.59,1.11,5.35,1.74,8.18,1.81m27.81-39.79l7.46-13.06-15.4-36.99c-1.53-3.59,0-5.91,2.32-7.71l3.24-2.59h-28.72l3.59,2.06c3.38,1.67,5.98,4.61,7.18,8.18l20.33,50.12Zm-59.1.76c-3.27-2.32-5.91-5.14-5.91-8.73v-54.7l-21.05,5.12,4.35,3.08c3.08,2.32,5.65,5.12,5.65,8.73v37.77c0,3.59-2.57,6.42-5.91,8.73l-4.12,3.08h31.06l-4.08-3.08Zm-56.76,0c-3.27-2.32-5.91-5.14-5.91-8.73v-54.7l-21.01,5.12,4.38,3.08c3.08,2.32,5.65,5.12,5.65,8.73v37.77c0,3.59-2.57,6.42-5.91,8.73l-4.1,3.08h31.06l-4.17-3.08Zm-185.21,0c-3.27-2.32-5.91-5.14-5.91-8.73V74.11l-22.6,5.14,4.63,3.27c4.1,2.83,6.44,5.65,6.44,10.51v115.08c0,3.59-2.57,6.42-5.91,8.73l-4.12,3.08h31.59l-4.12-3.01Zm22.09-123.81v123.05c5.12,3.27,13.62,5.65,22.09,5.65,18.23,0,31.59-18.23,31.59-38.79,0-15.15-8.18-29.78-24.39-29.78-8.18,0-14.89,5.91-19.27,10.03v4.63c4.63-4.12,10.28-6.42,14.71-6.42,12.32,0,16.19,14.71,16.19,25.96,0,16.17-5.65,30.32-18.5,30.32-6.42,0-11.05-5.14-11.05-5.14V74.11l-22.35,5.12,4.63,3.27c4.12,2.83,6.42,5.65,6.42,10.51m-80.67,77.35v50.65l21.24-5.65-4.38-2.57c-3.27-2.06-5.65-3.87-5.65-8.18v-51.14l-21.24,5.14,4.38,3.08c3.08,2.32,5.65,5.14,5.65,8.75m-14.15,43.91c-6.16,0-10.79-3.08-10.79-10.79v-50.09l-21.38,5.12,4.35,3.08c3.08,2.32,5.65,5.12,5.65,8.73v34.67c0,11.05,7.71,16.17,15.93,16.17s16.19-5.12,20.54-8.99v-3.87c-4.03,3.47-9.08,5.54-14.38,5.91m-54.66-6.11l-1.04-100.7c0-4.35,3.08-7.71,7.97-10.28l6.67-3.57h-26.7l-34.93,98.04-33.65-98.04h-28l6.16,3.59c4.63,2.57,7.46,5.91,7.46,10.28l-1.81,94.77c-.25,4.84-2.73,9.29-6.69,12.07l-6.67,5.67h33.37l-6.92-5.65c-4.1-3.59-6.42-7.18-6.42-12.07l1.55-87.08,38.03,103.87,37.5-103.78.76,92.99c0,3.59-3.08,6.42-7.18,8.73l-5.65,3.08h38.79l-5.65-3.08c-4.12-2.29-6.92-5.12-6.92-8.73"/></svg>