<?xml version="1.0" encoding="utf-8"?>
<!-- Generator: Adobe Illustrator 26.5.0, SVG Export Plug-In . SVG Version: 6.00 Build 0)  -->
<svg version="1.1" id="Layer_1" xmlns="http://www.w3.org/2000/svg" xmlns:xlink="http://www.w3.org/1999/xlink" x="0px" y="0px"
	 viewBox="0 0 2500 795" style="enable-background:new 0 0 2500 795;" xml:space="preserve">
<style type="text/css">
	.st0{fill:#FFFFFF;}
</style>
<path class="st0" d="M1548.3,642c73.2,0,116.5-68.8,128.6-94.3h-11.1c-14.1,17.8-43.3,53.3-94.2,53.3c-62.1,0-86.5-56.4-86.5-116.5
	c0-63.5,22.1-117.5,62.1-117.5c29.9,0,44.4,29.9,39.9,66.5l-110.9,35.3l-1.1,16.7l166.4-49.9c0-47.7-32.2-89.8-88.8-89.8
	c-66.5,0-120.9,69.9-120.9,155.2C1431.9,583,1479.6,642.1,1548.3,642 M1801.2,440.2c0,0,7.8-46.6,44.4-46.6
	c26.6,0,43.3,26.6,43.3,26.6l23.3-67.7c-7.4-5.4-16.3-8.1-25.5-7.7c-58.8,0-94.3,73.2-94.3,73.2L1801.2,440.2z M2047.5,440.2
	c0,0,7.8-46.6,44.4-46.6c26.6,0,43.3,26.6,43.3,26.6l23.3-67.7c-7.4-5.4-16.4-8.1-25.5-7.7c-58.7,0-94.2,73.2-94.2,73.2
	L2047.5,440.2z M2210.5,789.6c36.6,0,71-20,95.4-76.6l51-120.9l83.2-190.5c7.7-16.6,21.1-25.5,41-35.3l18.8-8.9h-117.6l15.5,8.9
	c17.8,10,25.5,21.2,18.8,37.8l-82.1,187.9l-37.7,89.8c-16.7,41.1-34.4,58.8-67.7,58.8c-44.4,0-75.4-33.3-75.4-33.3l21.2,74.3
	c11.2,4.8,23.1,7.5,35.3,7.8 M2330.3,617.6l32.2-56.4l-66.5-159.7c-6.6-15.5,0-25.5,10-33.3L2320,357h-124l15.5,8.9
	c14.6,7.2,25.8,19.9,31,35.3L2330.3,617.6z M2075.1,620.9c-14.1-10-25.5-22.2-25.5-37.7V347l-90.9,22.1l18.8,13.3
	c13.3,10,24.4,22.1,24.4,37.7v163.1c0,15.5-11.1,27.7-25.5,37.7l-17.8,13.3h134.1L2075.1,620.9z M1830,620.9
	c-14.1-10-25.5-22.2-25.5-37.7V347l-90.7,22.1l18.9,13.3c13.3,10,24.4,22.1,24.4,37.7v163.1c0,15.5-11.1,27.7-25.5,37.7l-17.7,13.3
	h134.1L1830,620.9z M1030.3,620.9c-14.1-10-25.5-22.2-25.5-37.7V4.3l-97.6,22.2l20,14.1C944.9,52.8,955,65,955,86v496.9
	c0,15.5-11.1,27.7-25.5,37.7l-17.8,13.3h136.4L1030.3,620.9z M1125.7,86.3v531.3c22.1,14.1,58.8,24.4,95.4,24.4
	c78.7,0,136.4-78.7,136.4-167.5c0-65.4-35.3-128.6-105.3-128.6c-35.3,0-64.3,25.5-83.2,43.3v20c20-17.8,44.4-27.7,63.5-27.7
	c53.2,0,69.9,63.5,69.9,112.1c0,69.8-24.4,130.9-79.9,130.9c-27.7,0-47.7-22.2-47.7-22.2V4.3l-96.5,22.1l20,14.1
	c17.8,12.2,27.7,24.4,27.7,45.4 M777.7,419.9v218.7l91.7-24.4l-18.9-11.1c-14.1-8.9-24.4-16.7-24.4-35.3V347l-91.7,22.2l18.9,13.3
	c13.3,10,24.4,22.2,24.4,37.8 M716.6,609.9c-26.6,0-46.6-13.3-46.6-46.6V347l-92.3,22.1l18.8,13.3c13.3,10,24.4,22.1,24.4,37.7
	v149.7c0,47.7,33.3,69.8,68.8,69.8c35.5,0,69.9-22.1,88.7-38.8v-16.7c-17.4,15-39.2,23.9-62.1,25.5 M480.3,583.2l-4.5-434.8
	c0-18.8,13.3-33.3,34.4-44.4L539,88.6H423.7L272.9,511.9L127.6,88.6H6.7l26.6,15.5c20,11.1,32.2,25.5,32.2,44.4l-7.8,409.2
	c-1.1,20.9-11.8,40.1-28.9,52.1L0,634.3h144.1l-29.9-24.4c-17.7-15.5-27.7-31-27.7-52.1l6.7-376l164.2,448.5l161.9-448.1l3.3,401.5
	c0,15.5-13.3,27.7-31,37.7l-24.4,13.3h167.5l-24.4-13.3c-17.8-9.9-29.9-22.1-29.9-37.7"/>
</svg>
