<?xml version="1.0" encoding="utf-8"?>
<!-- Generator: Adobe Illustrator 26.5.0, SVG Export Plug-In . SVG Version: 6.00 Build 0)  -->
<svg version="1.1" id="Layer_1" xmlns="http://www.w3.org/2000/svg" xmlns:xlink="http://www.w3.org/1999/xlink" x="0px" y="0px"
	 viewBox="0 0 2753.7 938.5" style="enable-background:new 0 0 2753.7 938.5;" xml:space="preserve">
<style type="text/css">
	.st0{fill-rule:evenodd;clip-rule:evenodd;fill:#FFFFFF;}
</style>
<g>
	<path class="st0" d="M877,784.5c-71,0-138.9-39.8-182.9-94.1C644,628.7,619.6,548.9,619.6,470c0-75.8,22.4-152.1,68.8-212.5
		c45.7-59.3,114.5-101.8,191-101.8c70.3,0,137.8,40.2,181.1,93.8c49.9,61.8,74.7,141.8,74.7,220.7c0,75.6-22.6,151.9-68.8,212.3
		C1021.2,741.4,952.8,784.5,877,784.5L877,784.5z M163.6,168.7h213.9v6.1h-52.5l159.6,436.9l134.7-436.9h-53v-6.1h115.4v6.1h-51
		l-189.9,604l-220.9-604h-56.3V168.7z M1603.4,158.1V368h-4.8c-9-41.3-21.8-81.5-44-118c-26.4-42.6-68.4-90.5-123.1-90.5
		c-125.7,0-137.1,225.3-137.1,311.2c0,76.9,6.1,156.3,34.1,228.4c19.6,50.6,47.9,75.4,100.5,75.4c41.7,0,86.2-21.1,108.3-57.4
		c5.7-9.5,6.2-20,6.2-30.8V524.1h-54.9v-6.4h201.1v6.4h-47v242.7h-4.2c-11.9-19.8-30.6-32.7-54.5-32.7c-17.4,0-34.3,6.2-49.4,14.5
		l-13.6,7.5c-30.8,13.6-60.2,23.5-94.3,23.5c-156,0-239.1-166.4-239.1-304.4c0-100.9,38.5-208.8,120.2-271.9
		c36.7-28.4,81.1-49.2,128.3-49.2c18.5,0,36.7,5.7,53.9,12.5l12.5,4.8c14.3,5.3,29.9,10.3,45.3,10.3c19.1,0,36.3-12.5,51-23.5
		L1603.4,158.1L1603.4,158.1z M1663.4,168.7H1878v6.1H1821v465.7c0,73,75.2,117.4,140.9,117.4c70.8,0,130.3-49.2,130.3-121.5V174.8
		H2025v-6.1h553.7v216.1h-4.2c-6.4-57.1-17.4-115.8-56.7-160.4c-39.8-45.1-93.8-49.5-149.5-49.5h-60v277.8
		c12.3,1.3,24.8,2.2,37.4,2.2c75.4,0,94.9-51.9,98.2-116.1h5.5v243.7h-5.5c-9.5-58.2-35.2-120.7-103.5-120.7
		c-10.8,0-21.3,0.7-32.1,1.5v297.2h89.9c46.6,0,93-20.2,125.9-52.7c28.1-27.7,47.7-63.7,54.5-102.6c3.7-21.8,5.5-44,6.6-65.9h4.8
		v227.5h-432.8v-6.2h50.3V174.8h-106.4v463.3c0,95.8-91,138.2-176.3,138.2c-96.5,0-202.9-46.8-202.9-157.2V174.8h-58.7L1663.4,168.7
		L1663.4,168.7L1663.4,168.7z"/>
	<path class="st0" d="M1026.7,470c0-87.3-31.2-305.3-149.2-305.3C759,164.7,728.2,382.5,728.2,470c0,87.5,31,305.5,149.2,305.5
		C995.5,775.5,1026.7,557.3,1026.7,470z"/>
</g>
</svg>
