<?xml version="1.0" encoding="UTF-8"?><svg id="Layer_1" xmlns="http://www.w3.org/2000/svg" viewBox="0 0 708.66 311.81"><defs><style>.cls-1{fill:#fff;fill-rule:evenodd;}</style></defs><path class="cls-1" d="m234.87,231.24c-16.97,0-33.2-9.51-43.72-22.49-11.97-14.75-17.81-33.82-17.81-52.68s5.35-36.35,16.44-50.79c10.92-14.17,27.37-24.33,45.65-24.33,16.8,0,32.94,9.61,43.29,22.42,11.93,14.77,17.85,33.89,17.85,52.75s-5.4,36.31-16.44,50.74c-10.8,14.08-27.15,24.38-45.27,24.38h0ZM64.35,84.06h51.13v1.46h-12.55l38.15,104.43,32.2-104.43h-12.67v-1.46h27.58v1.46h-12.19l-45.39,144.37-52.8-144.37h-13.46v-1.46h0Zm344.14-2.53v50.17h-1.15c-2.15-9.87-5.21-19.48-10.52-28.2-6.31-10.18-16.35-21.63-29.42-21.63-30.04,0-32.77,53.85-32.77,74.38,0,18.38,1.46,37.36,8.15,54.59,4.68,12.09,11.45,18.02,24.02,18.02,9.97,0,20.6-5.04,25.89-13.72,1.36-2.27,1.48-4.78,1.48-7.36v-38.77h-13.12v-1.53h48.07v1.53h-11.23v58.01h-1c-2.84-4.73-7.31-7.82-13.03-7.82-4.16,0-8.2,1.48-11.81,3.47l-3.25,1.79c-7.36,3.25-14.39,5.62-22.54,5.62-37.29,0-57.15-39.77-57.15-72.76,0-24.12,9.2-49.91,28.73-64.99,8.77-6.79,19.38-11.76,30.67-11.76,4.42,0,8.77,1.36,12.88,2.99l2.99,1.15c3.42,1.27,7.15,2.46,10.83,2.46,4.57,0,8.68-2.99,12.19-5.62l1.1-.02h0Zm14.34,2.53h51.29v1.46h-13.62v111.31c0,17.45,17.97,28.06,33.68,28.06,16.92,0,31.14-11.76,31.14-29.04v-110.33h-16.06v-1.46h132.35v51.65h-1c-1.53-13.65-4.16-27.68-13.55-38.34-9.51-10.78-22.42-11.83-35.73-11.83h-14.34v66.4c2.94.31,5.93.53,8.94.53,18.02,0,22.68-12.41,23.47-27.75h1.31v58.25h-1.31c-2.27-13.91-8.41-28.85-24.74-28.85-2.58,0-5.09.17-7.67.36v71.04h21.49c11.14,0,22.23-4.83,30.09-12.6,6.72-6.62,11.4-15.23,13.03-24.52.88-5.21,1.31-10.52,1.58-15.75h1.15v54.38h-103.45v-1.48h12.02V85.51h-25.43v110.74c0,22.9-21.75,33.03-42.14,33.03-23.07,0-48.5-11.19-48.5-37.57v-106.2h-14.03l.05-1.46h0Z"/><path class="cls-1" d="m270.65,156.07c0-20.87-7.46-72.97-35.66-72.97-28.32,0-35.69,52.06-35.69,72.97s7.41,73.02,35.66,73.02,35.69-52.15,35.69-73.02Z"/></svg>