<?xml version="1.0" encoding="utf-8"?>
<!-- Generator: Adobe Illustrator 26.5.0, SVG Export Plug-In . SVG Version: 6.00 Build 0)  -->
<svg version="1.1" id="Layer_1" xmlns="http://www.w3.org/2000/svg" xmlns:xlink="http://www.w3.org/1999/xlink" x="0px" y="0px"
	 viewBox="0 0 354.2 839.9" style="enable-background:new 0 0 354.2 839.9;" xml:space="preserve">
<style type="text/css">
	.st0{fill:#FFFFFF;}
</style>
<rect x="158.3" class="st0" width="37.7" height="839.9"/>
<path class="st0" d="M354.2,475.5c-29,16.1-54.5,37.8-76,64.6C223.7,608.6,196,709.5,196,839.9h-37.7c0-139.2,30.5-248,90.5-323.4
	c24.5-30.7,53.9-55.6,87.1-74L354.2,475.5z"/>
<path class="st0" d="M196,839.9h-37.7c0-130.5-27.7-231.4-82.3-299.9c-21.4-26.8-47-48.5-76-64.6l18.3-32.9
	c33.3,18.5,62.6,43.4,87.1,74C165.5,591.9,196,700.7,196,839.9"/>
</svg>
