<svg xmlns="http://www.w3.org/2000/svg" role="img" viewBox="95.84 91.14 1423.84 200.59"><g id="b"><g id="c"><g><path fill="none" d="M614.14 -614.14H997.54V997.5400000000001H614.14z" transform="rotate(90 805.84 191.7)"/><path fill="#fff" d="M628.56,248.41c-5.07-4.15-12.31-6.22-21.71-6.22-8.24,0-14.82,1.6-19.74,4.79,1.2-4.59,1.84-9.49,1.84-14.74,0-11.62-2.49-21.48-7.47-29.6-4.98-8.11-12.82-14.8-23.51-20.06-10.7-5.26-24.62-9.27-41.77-12.03-8.67-1.66-15.26-3.36-19.78-5.12-4.52-1.75-7.61-3.87-9.27-6.36-1.66-2.49-2.49-5.57-2.49-9.27,0-4.79,1.8-8.53,5.39-11.2,3.6-2.67,8.9-4.01,15.91-4.01,9.4,0,16.96,2.31,22.68,6.91,5.58,4.5,8.86,10.43,9.87,17.74l46-11.93h0c-3.69-17.33-12.45-30.94-26.28-40.8-13.83-9.86-32.37-14.8-55.6-14.8-14.94,0-27.76,2.21-38.45,6.64-10.7,4.43-18.95,11.02-24.76,19.78-5.81,8.76-8.71,19.41-8.71,31.95,0,18.26,5.44,31.95,16.32,41.08,10.88,9.13,26.09,15.35,45.64,18.67,11.62,1.85,20.42,3.78,26.42,5.81,5.99,2.03,10.14,4.34,12.45,6.92,2.3,2.58,3.46,5.72,3.46,9.41,0,5.35-2.26,9.45-6.78,12.31-4.52,2.86-10.93,4.29-19.23,4.29-11.07,0-19.87-2.17-26.42-6.5-6.47-4.27-11.08-11.76-13.86-22.42l-33.89,8.79-11.07-33.81-31.81-98.75h-69.43l-31.81,98.75-16.99,52.38v-14.48l.28-51.18h-85.34v33.43h35.35c-1.03,9.6-3.76,17.19-8.24,22.73-5.81,7.19-14.34,10.79-25.59,10.79-8.49,0-15.45-2.07-20.89-6.22-5.44-4.15-9.54-10.42-12.31-18.81-2.77-8.39-4.15-18.85-4.15-31.4s1.34-22.08,4.01-30.29c2.67-8.2,6.73-14.34,12.17-18.4,5.44-4.05,12.03-6.08,19.78-6.08,9.4,0,17.19,2.86,23.37,8.58,5.93,5.49,9.93,14.34,12.04,26.46l49.79-12.91c-1.85-13.64-6.41-25.49-13.69-35.55-7.29-10.05-16.92-17.88-28.91-23.51-11.99-5.62-26-8.44-42.05-8.44-19.74,0-36.56,3.92-50.48,11.76-13.93,7.84-24.58,19.18-31.95,34.02-7.37,14.85-11.06,32.78-11.06,53.8s3.55,38.77,10.65,53.8c7.1,15.03,17.19,26.56,30.29,34.58,13.09,8.02,28.4,12.03,45.92,12.03,11.07,0,21.11-1.8,30.15-5.39,9.03-3.6,16.5-9.54,22.41-17.84,.59-.83,1.13-1.69,1.67-2.57l4.14,21.66h77.3l9.4-33.75h56.98l9.68,33.75h59.75l-4.31-13.17c.89,.7,1.74,1.45,2.68,2.11,14.38,10.14,33.2,15.21,56.43,15.21,14.57,0,27.89-2.21,39.97-6.64,11.84-4.34,21.37-10.86,28.6-19.55-.02,.43-.05,.85-.05,1.29,0,7.75,2.53,13.74,7.61,17.98,5.07,4.24,12.31,6.36,21.71,6.36s16.64-2.12,21.71-6.36c5.07-4.24,7.61-10.23,7.61-17.98s-2.54-14.25-7.61-18.4Zm-272.56-35.82h-18.26l17.98-65.01h.83l17.98,65.01h-18.53Zm234.61-111.4h-10.44v-5.33h27.24v5.33h-10.44v26.62h-6.35v-26.62Zm56.81-5.33v31.95h-5.86v-25.78l-8.84,25.78h-5.11l-8.92-25.78v25.78h-5.86v-31.95h9.13l8.16,22.87,8.22-22.87h9.08Zm48.84,179.48c-12.62-10.41-19.94-24.64-21.97-42.7l22.66-5.53c2.58,13.82,7.74,24.14,15.48,30.95,7.74,6.82,19.9,10.23,36.48,10.23,13.08,0,23.12-2.99,30.12-8.98,7-5.98,10.5-13.77,10.5-23.35,0-6.26-1.52-11.56-4.56-15.89-3.04-4.33-7.88-8.1-14.51-11.33-6.63-3.22-15.57-6.13-26.81-8.71-22.48-5.34-38.55-12.44-48.23-21.28-9.67-8.84-14.51-20.73-14.51-35.65,0-11.06,2.44-20.49,7.32-28.33,4.88-7.83,11.79-13.72,20.73-17.69,8.93-3.96,19.48-5.94,31.64-5.94,21.18,0,37.9,5.02,50.16,15.06,12.25,10.05,19.39,23.45,21.42,40.21l-23.77,5.53c-1.1-11.24-5.67-20.4-13.68-27.5-8.02-7.09-19.03-10.64-33.03-10.64-10.87,0-19.48,2.49-25.84,7.46-6.36,4.98-9.54,11.98-9.54,21.01,0,6.08,1.56,11.15,4.7,15.2,3.13,4.05,7.97,7.51,14.51,10.36,6.54,2.86,15.61,5.67,27.22,8.43,15.29,3.69,27.4,8.02,36.34,12.99,8.93,4.98,15.48,11.15,19.62,18.52,4.14,7.37,6.22,16.58,6.22,27.64,0,11.79-2.81,21.83-8.43,30.12-5.62,8.29-13.45,14.61-23.49,18.93-10.04,4.33-21.42,6.5-34.13,6.5-22.48,0-40.03-5.2-52.65-15.62Zm163.2,8.15c-6.26-4.98-10.18-11.15-11.75-18.52-1.57-7.37-2.35-16.95-2.35-28.74v-76l-22.11,.55v-19.35h22.11v-46.71h24.32v46.71h44.77v19.35l-44.77-.55v78.21c0,7.74,.55,13.91,1.66,18.52,1.1,4.61,3.18,8.11,6.22,10.5,3.04,2.4,7.51,3.59,13.41,3.59,8.1,0,15.57-1.19,22.39-3.59l4.42,17.96c-4.42,1.66-9.12,2.99-14.1,4.01-4.98,1.01-10.05,1.52-15.2,1.52-13.08,0-22.76-2.49-29.02-7.46Zm188.48-71.86l.55,75.17h-24.32l.55-22.11h-.55c-3.87,7.37-9.81,13.5-17.83,18.38-8.02,4.88-17.27,7.33-27.77,7.33-16.4,0-28.79-5.02-37.17-15.06-8.39-10.04-12.57-25.66-12.57-46.85v-16.86l-.55-70.2h24.32l-.55,70.2v16.58c0,14,2.99,24.46,8.98,31.37,5.99,6.91,14.24,10.37,24.74,10.37,7,0,13.45-1.98,19.35-5.94,5.89-3.96,10.64-9.58,14.23-16.86,3.59-7.27,5.39-15.52,5.39-24.74v-10.78l-.55-70.2h24.32l-.55,70.2Zm74.89,79.32c-12.53,0-23.22-2.95-32.06-8.85-8.84-5.89-15.57-14.55-20.18-25.98-4.61-11.42-6.91-25.33-6.91-41.73s2.3-30.3,6.91-41.73c4.61-11.42,11.33-20.08,20.18-25.98,8.85-5.89,19.53-8.85,32.06-8.85,11.42,0,21.05,2.58,28.88,7.74,7.83,5.16,13.59,11.15,17.27,17.97h.55l-.83-68.54h25.15l-.55,108.34,.55,83.46h-25.15l.55-21.56h-.55c-3.32,6.63-8.94,12.58-16.86,17.83-7.92,5.25-17.6,7.88-29.02,7.88Zm5.8-19.9c6.82,0,13.27-1.66,19.35-4.97,6.08-3.32,11.19-9.21,15.34-17.69,4.15-8.47,6.22-19.99,6.22-34.54,0-12.53-1.84-22.98-5.53-31.37-3.69-8.38-8.61-14.6-14.79-18.66-6.17-4.05-13.03-6.08-20.59-6.08-13.08,0-23.12,4.88-30.12,14.65-7,9.77-10.5,23.77-10.5,42.01s3.5,32.25,10.5,42.01c7,9.77,17.04,14.65,30.12,14.65Zm88.3-150.48c-2.49-2.49-3.73-6.31-3.73-11.47s1.25-8.71,3.73-11.19c2.49-2.49,6.22-3.73,11.19-3.73s8.71,1.24,11.19,3.73c2.49,2.49,3.73,6.22,3.73,11.19s-1.24,8.98-3.73,11.47c-2.49,2.49-6.22,3.73-11.19,3.73s-8.71-1.24-11.19-3.73Zm-.42,93.55l-.55-72.69h24.32l-.55,72.69,.55,72.69h-24.32l.55-72.69Zm76.14,67.43c-10.23-6.26-18.06-15.15-23.49-26.67-5.44-11.51-8.15-25.1-8.15-40.76s2.71-28.97,8.15-40.49c5.43-11.51,13.27-20.36,23.49-26.53,10.22-6.17,22.25-9.26,36.06-9.26s25.88,3.09,36.2,9.26c10.32,6.18,18.24,15.02,23.77,26.53,5.53,11.52,8.29,25.01,8.29,40.49s-2.76,29.25-8.29,40.76c-5.53,11.52-13.45,20.41-23.77,26.67-10.32,6.26-22.39,9.4-36.2,9.4s-25.84-3.14-36.06-9.4Zm68.26-25.7c7.83-9.95,11.75-23.86,11.75-41.73s-3.92-31.23-11.75-41.18c-7.83-9.95-18.47-14.93-31.92-14.93s-24.32,4.93-32.06,14.79c-7.74,9.86-11.61,23.63-11.61,41.32s3.87,31.78,11.61,41.73c7.74,9.95,18.42,14.93,32.06,14.93s24.09-4.98,31.92-14.93Zm62.73,23.63c-10.23-7.64-15.99-19.21-17.27-34.68l21.28-5.25c-.37,9.4,2.77,16.95,9.4,22.66,6.63,5.71,16.31,8.57,29.02,8.57,9.58,0,17-1.84,22.25-5.53,5.25-3.68,7.88-9.3,7.88-16.86,0-4.42-1.15-8.24-3.46-11.47-2.3-3.22-5.85-5.89-10.64-8.01-4.79-2.12-10.96-3.82-18.52-5.11-18.61-2.77-31.64-7.88-39.11-15.34-7.46-7.46-11.19-16.9-11.19-28.33,0-12.53,4.1-22.71,12.3-30.54,8.2-7.83,19.94-11.75,35.24-11.75,17.32,0,30.44,3.55,39.38,10.64,8.93,7.09,14.14,17.92,15.62,32.47l-21.01,5.25c-.55-9.58-3.55-16.67-8.98-21.28-5.44-4.6-13.4-6.91-23.91-6.91-8.11,0-14.33,1.8-18.66,5.39-4.33,3.59-6.49,8.53-6.49,14.79s2.39,11.57,7.18,15.34c4.79,3.78,13.17,6.77,25.15,8.98,11.97,2.03,21.7,5.11,29.16,9.26,7.46,4.15,12.89,9.21,16.31,15.2,3.41,5.99,5.11,12.85,5.11,20.59,0,8.29-2.12,15.71-6.36,22.25-4.24,6.54-10.46,11.7-18.66,15.48-8.2,3.77-18.01,5.67-29.43,5.67-17.51,0-31.37-3.83-41.59-11.47Z"/></g></g></g></svg>