<?xml version="1.0" encoding="utf-8"?>
<!-- Generator: Adobe Illustrator 26.5.0, SVG Export Plug-In . SVG Version: 6.00 Build 0)  -->
<svg version="1.1" xmlns="http://www.w3.org/2000/svg" xmlns:xlink="http://www.w3.org/1999/xlink" x="0px" y="0px"
	 viewBox="0 0 1151.8 921.5" style="enable-background:new 0 0 1151.8 921.5;" xml:space="preserve">
<style type="text/css">
	.st0{fill:none;}
</style>
<g id="Logo">
</g>
<g id="Isolation_Mode">
	<g>
		<rect x="-286.6" y="-289.3" class="st0" width="1725" height="1500"/>
		<g>
			<defs>
				<path id="SVGID_1_" d="M158.5,794.9C61.8,717.8,13.4,606.4,13.4,460.7c0-145.4,48.4-256.9,145.1-334.2
					C255.1,49.4,394.3,10.7,575.9,10.7c181.5,0,320.7,38.7,417.4,115.8c96.6,77.3,145.1,188.8,145.1,334.2
					c0,145.6-48.5,257.1-145.1,334.2c-96.7,77.3-235.9,115.8-417.4,115.8C394.3,910.7,255.1,872.3,158.5,794.9z"/>
			</defs>
			<clipPath id="SVGID_00000170966221718893957910000018183413588952934816_">
				<use xlink:href="#SVGID_1_"  style="overflow:visible;"/>
			</clipPath>
			<g style="clip-path:url(#SVGID_00000170966221718893957910000018183413588952934816_);">
				
					<image style="overflow:visible;" width="4983" height="4040" xlink:href="9E1585E1AAD72EB4.png" href="9E1585E1AAD72EB4.png"  transform="matrix(0.24 0 0 0.24 -22.0281 -24.1189)">
				</image>
			</g>
			<g style="clip-path:url(#SVGID_00000170966221718893957910000018183413588952934816_);">
				
					<image style="overflow:visible;" width="4983" height="4040" xlink:href="9E1585E1AAD72EBE.png" href="9E1585E1AAD72EBE.png"  transform="matrix(0.24 0 0 0.24 -22.0281 -24.1189)">
				</image>
			</g>
		</g>
		
			<image style="overflow:visible;" width="906" height="766" xlink:href="9E1585E1AAD72EBF.png" href="9E1585E1AAD72EBF.png"  transform="matrix(1.5295 0 0 1.5295 -116.9589 -125.075)">
		</image>
	</g>
</g>
<g id="Layer_1">
</g>
</svg>
