<svg version="1.1" id="Layer_1" xmlns="http://www.w3.org/2000/svg" xmlns:xlink="http://www.w3.org/1999/xlink" x="0px" y="0px" style="enable-background:new 0 0 2000 781.55;" xml:space="preserve" preserveAspectRatio="xMinYMin" viewBox="304.71 206.31 1390.58 380.68"> <g> 	<polygon points="880.21,467.47 882.56,467.28 880.21,467.28 &#9;"/> 	<path d="M869.82,495.08c-8.14-4.97-20.07-7.24-31.8-9.04c-7.86-1.17-14.83-2.34-20.83-4.14c-6.55-2-10.9-4.62-13.66-8.28 &#9;&#9;c-2-2.69-3.03-6.07-3.03-10.07c0-6.35,2.76-11.93,7.66-15.66c5.31-4.14,12.9-6.21,22.55-6.21c11.04,0,19.31,2.07,25.25,6.35 &#9;&#9;c5.52,3.86,8.83,9.73,9.93,17.24l0.07,0.28h14.21l-0.07-0.34c-1.38-10.76-5.59-18.83-12.97-24.69c-8.28-6.48-20.42-9.79-36.07-9.79 &#9;&#9;c-14.14,0-25.66,3.45-33.45,9.86c-7.04,5.86-10.76,13.86-10.83,23.11c0,5.86,1.03,10.69,3.31,14.69c2,3.66,4.97,6.62,8.97,9.1 &#9;&#9;c7.17,4.48,17.31,6.83,30.21,8.9h0.07c8.62,1.17,15.73,2.21,21.73,3.93c7.1,2.07,11.8,4.83,14.62,8.83 &#9;&#9;c2.14,2.9,3.24,6.69,3.24,10.97c0,6.76-2.97,12.69-8.35,16.76c-5.93,4.55-14.42,6.83-25.11,6.83c-12.69,0-21.93-2.55-28.35-7.73 &#9;&#9;c-5.93-4.83-9.38-11.93-10.21-21.11v-0.28h-14.76v0.35c1.1,13.04,5.31,22.55,12.9,29.18c8.62,7.45,21.66,11.1,40,11.1 &#9;&#9;c15.1,0,27.45-3.59,35.73-10.42c7.66-6.21,11.73-14.9,11.73-25.11v-0.21c0-6-1.1-10.97-3.45-15.17 &#9;&#9;C876.92,500.53,873.95,497.56,869.82,495.08z"/> 	<polygon points="939.52,444.73 978.15,444.73 978.15,552.67 991.95,552.67 991.95,444.73 1032.3,444.73 1032.3,433.28  &#9;&#9;939.52,433.28 &#9;"/> 	<path d="M1175,497.71c-0.07,15.8-2.62,26.55-8,33.87c-5.45,7.31-14.35,10.97-26.35,10.97c-12.21,0-21.24-3.72-26.83-11.04 &#9;&#9;c-5.66-7.38-8.28-18.07-8.28-33.59v-64.7h-13.93v65.18c0,20.07,3.86,34.28,11.86,43.52c7.93,9.1,20.07,13.52,37.18,13.52 &#9;&#9;c16.42,0,28.35-4.41,36.42-13.52c8.21-9.31,12.35-23.93,12.35-43.52v-65.18H1175V497.71z"/> 	<path d="M1333.73,447.01c-10.14-9.17-24.21-13.73-40.42-13.73h-42.28v118.84h43.52c16.49,0,30.35-4.55,40-13.66 &#9;&#9;c9.66-9.1,15.45-22.9,15.52-42.21v-6.97C1350.01,469.97,1343.8,456.18,1333.73,447.01z M1336.83,495.22 &#9;&#9;c0,15.31-4.21,26.9-11.86,34.62c-7.66,7.73-18.49,11.38-31.11,11.38h-30v-97.18h29.11c12.69,0,23.73,3.72,31.59,11.52 &#9;&#9;c7.86,7.79,12.28,19.45,12.28,34.62V495.22z"/> 	<polygon points="1409.35,445.09 1409.68,445.09 1409.68,445.14 1409.95,445.14 1409.95,445.09 1434.63,445.09 1434.63,540.27  &#9;&#9;1409.29,540.27 1409.29,552.62 1473.78,552.62 1473.78,540.27 1448.43,540.27 1448.43,445.09 1473.78,445.09 1473.78,433.22  &#9;&#9;1409.35,433.22 &#9;"/> 	<path d="M1587.72,431c-16.62,0-30.14,5.31-39.66,15.24c-9.45,9.86-14.97,24.55-14.97,43.8v6.97c0,19.93,5.24,34.35,14.55,43.73 &#9;&#9;c9.17,9.38,22.76,14.21,40.07,14.21c16.69,0,30.35-4.83,40-14.42c9.52-9.45,15.18-23.8,15.18-43.52v-6.97 &#9;&#9;c0-19.66-5.73-34.28-15.31-44.07C1617.93,436.18,1604.27,431,1587.72,431z M1629.38,496.46c0,15.17-3.86,26.97-11.17,34.97 &#9;&#9;c-7.31,7.86-17.73,11.86-30.14,11.86h-0.62c-12.69,0-23.11-4.07-30.14-12.14c-7.1-8.07-10.69-19.8-10.69-34.69v-5.93 &#9;&#9;c0-15.1,3.52-27.11,10.55-35.52c7.04-8.28,17.45-12.69,30.28-12.69h0.55c12.76,0,23.24,4.28,30.42,12.48 &#9;&#9;c7.24,8.35,10.97,20.48,10.97,35.93V496.46z"/> 	<path d="M545.42,254.58h133.12v-13.79H545.42v0l0-34.48h-13.79l0,153.8H486.1l0-153.8l-13.79,0l0,34.48v0H339.19v13.79h133.12 &#9;&#9;v46.21h-167.6v13.79h48.28v164.85h-48.28v13.79h167.6v45.52H339.19v13.79h133.12l0,34.46h13.79l0-153.78h45.52l0,153.78h13.79 &#9;&#9;l0-34.46h133.12v-13.79H545.42v-45.52h167.61v-13.79h-48.28V314.59h48.28v-13.79H545.42V254.58z M426.1,314.59h46.21v45.52H426.1 &#9;&#9;V314.59z M412.3,479.43h-45.52v-46.21v-13.79V373.9v-13.79v-45.52h45.52V479.43z M472.31,479.43H426.1v-46.21h46.21V479.43z &#9;&#9; M591.63,479.43h-46.21v-46.21h46.21V479.43z M591.63,419.43h-46.21h-13.79H486.1h-13.79H426.1V373.9h46.21h13.79h45.52h13.79 &#9;&#9;h46.21V419.43z M605.43,433.22v-13.79V373.9v-13.79v-45.52h45.52v45.52v13.79v45.52v13.79v46.21h-45.52V433.22z M591.63,314.59 &#9;&#9;v45.52h-46.21v-45.52H591.63z"/> 	<polygon points="877,300.8 800.23,300.8 800.23,240.78 786.51,240.78 786.51,360.1 800.23,360.1 800.23,314.53 877,314.53  &#9;&#9;877,360.1 890.8,360.1 890.8,240.78 877,240.78 &#9;"/> 	<path d="M998.39,240.78L950.45,360.1h14l17.72-45.56l49.55,0l18.47,45.56h14l-49.38-119.32H998.39z M1026.2,300.81l-38.72,0 &#9;&#9;l0.01-0.03l16.55-42.56l2.41-6.14l19.73,48.7L1026.2,300.81z"/> 	<path d="M1308.96,240.78l-47.94,119.32h14l17.72-45.56l49.55,0l18.47,45.56h14l-49.38-119.32H1308.96z M1336.77,300.81l-38.72,0 &#9;&#9;l0.01-0.03l16.55-42.56l2.41-6.14l19.73,48.7L1336.77,300.81z"/> 	<path d="M1695.29,360.1l-49.38-119.32h-16.42l-47.94,119.32h14l17.71-45.56l49.58,0l18.45,45.56H1695.29z M1618.6,300.81 &#9;&#9;l16.55-42.58l2.41-6.14l19.73,48.72L1618.6,300.81z"/> 	<path d="M1183.06,240.91v-0.1h-45.52v-0.04h-13.73V360.1h13.73v-45.55h45.52v0c20.34-0.01,36.81-16.48,36.82-36.82 &#9;&#9;C1219.88,257.39,1203.4,240.91,1183.06,240.91z M1183.06,300.82L1183.06,300.82l-45.52,0v-46.29h45.52v0.1 &#9;&#9;c12.75,0.02,23.07,10.34,23.09,23.09C1206.13,290.48,1195.81,300.8,1183.06,300.82z"/> 	<path d="M1520.78,319.54c-3.38,20.28-17.24,31.38-39.25,31.38c-27.31,0-42.35-16.48-42.35-46.42v-5.93 &#9;&#9;c0-30.83,15.52-48.49,42.69-48.49c21.66,0,34.83,10.21,38.35,29.52h13.86c-4.48-26.76-22.55-40.83-52.21-40.83 &#9;&#9;c-35.24,0-56.28,22-56.28,58.97v7.45c0,29.66,11.73,48.28,34.28,54.9c6.21,1.93,13.18,2.83,20.97,2.83 &#9;&#9;c7.79,0,14.83-0.97,21.04-2.83c18.48-5.59,29.73-19.31,33.11-40.56H1520.78z"/> </g> </svg>