<?xml version="1.0" encoding="utf-8"?>
<!-- Generator: Adobe Illustrator 26.5.0, SVG Export Plug-In . SVG Version: 6.00 Build 0)  -->
<svg version="1.1" id="Layer_1" xmlns="http://www.w3.org/2000/svg" xmlns:xlink="http://www.w3.org/1999/xlink" x="0px" y="0px"
	 viewBox="0 0 1700.8 717.2" style="enable-background:new 0 0 1700.8 717.2;" xml:space="preserve">
<style type="text/css">
	.st0{fill:#FFFFFF;}
</style>
<g>
	<path class="st0" d="M493.8,334.8c2.1,0,3.9-1.9,3.9-3.9v-8c0-2.3-1.9-3.9-3.9-3.9h-15.9V184.5c0-2.1-1.9-3.9-3.9-3.9h-8
		c-2.3,0-3.9,1.9-3.9,3.9V319h-47.3V184.5c0-2.1-1.8-3.9-3.9-3.9h-8c-2.3,0-3.9,1.9-3.9,3.9v15.9H240.9v-15.9c0-2.1-1.8-3.9-3.9-3.9
		h-8c-2.3,0-3.9,1.9-3.9,3.9V319h-47.7V184.5c0-2.1-1.9-3.9-3.9-3.9h-8c-2.3,0-3.9,1.9-3.9,3.9V319l-15.9,0c-2.1,0-3.9,1.8-3.9,3.9
		v8c0,2.3,1.8,3.9,3.9,3.9h134.5v47.5H151.5h-5.8c-2.1,0-3.9,1.9-3.9,3.9v8c0,2.3,1.8,3.9,3.9,3.9h15.9v134.5c0,2.1,1.9,3.9,3.9,3.9
		h8c2.3,0,3.9-1.9,3.9-3.9V398.1H225v134.5c0,2.1,1.9,3.9,3.9,3.9h8c2.3,0,3.9-1.9,3.9-3.9v-15.9h158.1v15.9c0,2.1,1.8,3.9,3.9,3.9
		h8c2.3,0,3.9-1.9,3.9-3.9V398.1h47.3v134.5c0,2.1,1.8,3.9,3.9,3.9h8c2.3,0,3.9-1.9,3.9-3.9V398.1h15.9c2.1,0,3.9-1.9,3.9-3.9v-8
		c0-2.3-1.9-3.9-3.9-3.9H359.2v-47.5H493.8z M359.2,279.7h39.7V319h-39.7V279.7z M398.9,500.9H240.9v-47.5h158.1V500.9z
		 M240.9,216.2h158.1v47.7H240.9V216.2z M343.4,437.6H296V279.7h47.5V437.6z M240.9,279.7h39.3V319h-39.3V279.7z M280.2,437.6h-39.3
		v-39.5h39.3V437.6z M398.9,437.6h-39.7v-39.5h39.7V437.6z"/>
	<g>
		<path class="st0" d="M573.3,185.5c0-2.5,2.3-4.8,4.8-4.8h9.9c2.8,0,4.8,2.3,4.8,4.8v74.3h103.3v-74.3c0-2.5,2-4.8,4.8-4.8h9.9
			c2.5,0,4.8,2.3,4.8,4.8v168.4c0,2.5-2.3,4.8-4.8,4.8h-9.9c-2.8,0-4.8-2.3-4.8-4.8v-77.1H592.8v77.1c0,2.5-2,4.8-4.8,4.8h-9.9
			c-2.5,0-4.8-2.3-4.8-4.8V185.5z"/>
		<path class="st0" d="M907.5,352.1l-76.8-171.2c-0.8-1.5-2-2.8-4.3-2.8h-2.5c-2.3,0-3.6,1.3-4.3,2.8l-77.3,171.2
			c-1.5,3.3,0.5,6.6,4.3,6.6h10.2c2.3,0,3.8-1.5,4.3-2.8l18.6-42h90.3l18.8,42c0.5,1.3,2,2.8,4.3,2.8h10.2
			C907,358.7,909,355.4,907.5,352.1z M786.7,298.1l37.1-83.4h2c12.5,27.7,24.7,55.7,37.1,83.4H786.7z"/>
		<path class="st0" d="M934.3,185.5c0-2.5,2-4.8,4.8-4.8h56.2c31.3,0,57,25.4,57,56.2c0,31.5-25.7,57.2-56.7,57.2h-42v59.8
			c0,2.5-2.3,4.8-4.8,4.8h-9.7c-2.8,0-4.8-2.3-4.8-4.8V185.5z M994,275.3c20.9,0,38.7-17,38.7-38.9c0-20.6-17.8-36.4-38.7-36.4
			h-40.4v75.3H994z"/>
		<path class="st0" d="M1047.1,352.1l77.3-171.2c0.8-1.5,2-2.8,4.3-2.8h2.5c2.3,0,3.6,1.3,4.3,2.8l76.8,171.2
			c1.5,3.3-0.5,6.6-4.3,6.6h-10.2c-2.3,0-3.8-1.5-4.3-2.8l-18.8-42h-90.3l-18.6,42c-0.5,1.3-2,2.8-4.3,2.8h-10.2
			C1047.6,358.7,1045.6,355.4,1047.1,352.1 M1167.9,298.1c-12.5-27.7-24.7-55.7-37.1-83.4h-2l-37.1,83.4H1167.9z"/>
		<g>
			<path class="st0" d="M1311.9,178.1c25.7,0,44.2,8.9,61.5,23.7c2,2,2.3,5.1,0.3,7.1l-6.9,6.9c-2,2.5-4.1,2.3-6.6-0.3
				c-13.2-11.4-31.3-19.1-48.6-19.1c-40.2,0-71,33.8-71,73.2c0,39.2,30.8,73,71,73c22.1,0,35.1-8.9,48.6-19.1c2.5-2,4.6-1.8,6.1-0.8
				l7.6,6.9c2,1.5,1.5,5.1-0.3,6.9c-17.3,16.8-39.2,24.7-61.8,24.7c-50.9,0-91.8-40.4-91.8-91.3
				C1220.1,219.1,1261.1,178.1,1311.9,178.1"/>
			<path class="st0" d="M1393.2,352.1l77.3-171.2c0.8-1.5,2-2.8,4.3-2.8h2.5c2.3,0,3.6,1.3,4.3,2.8l76.8,171.2
				c1.5,3.3-0.5,6.6-4.3,6.6h-10.2c-2.3,0-3.8-1.5-4.3-2.8l-18.8-42h-90.3l-18.6,42c-0.5,1.3-2,2.8-4.3,2.8h-10.2
				C1393.7,358.7,1391.7,355.4,1393.2,352.1 M1514,298.1c-12.5-27.7-24.7-55.7-37.1-83.4h-2l-37.1,83.4H1514z"/>
		</g>
	</g>
	<g>
		<path class="st0" d="M574,520.2l1.6-2.1c1.2-1.4,2.5-1.9,3.9-0.7c1.7,1.6,14.7,13.5,32.4,13.5c16,0,29.5-10.7,29.5-23.5
			c0-15.6-12.8-22.6-34-29.8c-20.3-7.2-33.8-14.4-33.8-34.5c0-13.1,10.5-31,37.9-31c17.4,0,30.2,8.9,30.2,8.9
			c0.7,0.5,1.9,1.8,0.7,3.7c-0.5,0.7-1.1,1.6-1.4,2.3c-1,1.4-2.1,1.9-3.9,0.9c-0.5-0.3-12.3-8.2-25.8-8.2
			c-21.6,0-29.6,13.3-29.6,23.3c0,14.9,11.4,21.4,29.1,27.2c24,8.2,39.3,16.7,39.3,37c0,17.5-18.1,31.2-38.2,31.2
			c-20.9,0-34.9-12.3-37.2-14.4C573.5,523,572.6,522.1,574,520.2"/>
		<path class="st0" d="M706,421.3h-33.5c-1.8,0-2.3-1.1-2.3-2.6v-2.6c0-1.4,1.1-2.3,2.3-2.3h75.4c1.4,0,2.3,1.1,2.3,2.3v3
			c0,1.2-0.9,2.3-2.3,2.3h-33.7v112.9c0,1.2-1.1,2.3-2.8,2.3h-3.2c-1.2,0-2.3-1.1-2.3-2.3V421.3z"/>
		<path class="st0" d="M779.1,416.1c0-1.2,1.1-2.3,2.3-2.3h3.7c1.2,0,2.3,1.1,2.3,2.3v74.9c0,22.6,14.2,39.3,37.5,39.3
			c23.5,0,37.9-16.5,37.9-39.1v-75c0-1.4,0.7-2.3,2.5-2.3h3.5c1.2,0,2.3,1.1,2.3,2.3v75.7c0,26.8-18.2,46.5-46.1,46.5
			c-27.7,0-45.8-19.6-45.8-46.5V416.1z"/>
		<path class="st0" d="M910.4,416.1c0-1.2,1.1-2.3,2.1-2.3h37.2c34,0,61.7,27.5,61.7,61.2c0,34.2-27.7,61.5-61.7,61.5h-37.2
			c-1.1,0-2.1-1.1-2.1-2.3V416.1z M948.3,529c30.7,0,54.4-23.3,54.4-54c0-30.3-23.7-53.6-54.4-53.6h-29.6V529H948.3z"/>
		<path class="st0" d="M1042.8,416.1c0-1.2,1.1-2.3,2.3-2.3h3.9c1.2,0,2.3,1.1,2.3,2.3v118.2c0,1.4-1.2,2.3-2.5,2.3h-3.7
			c-1.2,0-2.3-1.1-2.3-2.3V416.1z"/>
		<path class="st0" d="M1148.8,412c35.2,0,63.3,28.2,63.3,63.3c0,35.2-28.1,62.9-63.3,62.9c-35.1,0-63.1-27.7-63.1-62.9
			C1085.6,440.3,1113.7,412,1148.8,412 M1148.8,530.6c30.7,0,55.6-24.5,55.6-55.2c0-30.7-24.9-55.6-55.6-55.6
			c-30.7,0-55.4,24.9-55.4,55.6C1093.3,506,1118.1,530.6,1148.8,530.6"/>
	</g>
</g>
</svg>
