<?xml version="1.0" encoding="utf-8"?>
<!-- Generator: Adobe Illustrator 27.5.0, SVG Export Plug-In . SVG Version: 6.00 Build 0)  -->
<svg version="1.1" id="Isolation_Mode" xmlns="http://www.w3.org/2000/svg" xmlns:xlink="http://www.w3.org/1999/xlink" x="0px"
	 y="0px" viewBox="0 0 732 614.1" style="enable-background:new 0 0 732 614.1;" xml:space="preserve">
<style type="text/css">
	.st0{fill:none;}
	.st1{fill:#FFFFFF;}
</style>
<g>
	
		<rect x="58.9" y="-58.9" transform="matrix(-1.836970e-16 1 -1 -1.836970e-16 673.0683 -58.9499)" class="st0" width="614.1" height="732"/>
	<path class="st1" d="M628.6,248.4c-5.1-4.1-12.3-6.2-21.7-6.2c-8.2,0-14.8,1.6-19.7,4.8c1.2-4.6,1.8-9.5,1.8-14.7
		c0-11.6-2.5-21.5-7.5-29.6c-5-8.1-12.8-14.8-23.5-20.1c-10.7-5.3-24.6-9.3-41.8-12c-8.7-1.7-15.3-3.4-19.8-5.1
		c-4.5-1.8-7.6-3.9-9.3-6.4c-1.7-2.5-2.5-5.6-2.5-9.3c0-4.8,1.8-8.5,5.4-11.2c3.6-2.7,8.9-4,15.9-4c9.4,0,17,2.3,22.7,6.9
		c5.6,4.5,8.9,10.4,9.9,17.7l46-11.9l0,0c-3.7-17.3-12.4-30.9-26.3-40.8c-13.8-9.9-32.4-14.8-55.6-14.8c-14.9,0-27.8,2.2-38.5,6.6
		c-10.7,4.4-18.9,11-24.8,19.8c-5.8,8.8-8.7,19.4-8.7,32c0,18.3,5.4,32,16.3,41.1c10.9,9.1,26.1,15.4,45.6,18.7
		c11.6,1.8,20.4,3.8,26.4,5.8c6,2,10.1,4.3,12.4,6.9c2.3,2.6,3.5,5.7,3.5,9.4c0,5.3-2.3,9.5-6.8,12.3c-4.5,2.9-10.9,4.3-19.2,4.3
		c-11.1,0-19.9-2.2-26.4-6.5c-6.5-4.3-11.1-11.8-13.9-22.4l-33.9,8.8l-11.1-33.8L392,95.9h-69.4l-31.8,98.8l-17,52.4v-14.5l0.3-51.2
		h-85.3v33.4H224h0c-1,9.6-3.8,17.2-8.2,22.7c-5.8,7.2-14.3,10.8-25.6,10.8c-8.5,0-15.4-2.1-20.9-6.2c-5.4-4.1-9.5-10.4-12.3-18.8
		c-2.8-8.4-4.2-18.9-4.2-31.4c0-12,1.3-22.1,4-30.3c2.7-8.2,6.7-14.3,12.2-18.4c5.4-4.1,12-6.1,19.8-6.1c9.4,0,17.2,2.9,23.4,8.6
		c5.9,5.5,9.9,14.3,12,26.5l49.8-12.9c-1.8-13.6-6.4-25.5-13.7-35.5c-7.3-10-16.9-17.9-28.9-23.5c-12-5.6-26-8.4-42-8.4
		c-19.7,0-36.6,3.9-50.5,11.8c-13.9,7.8-24.6,19.2-32,34c-7.4,14.8-11.1,32.8-11.1,53.8c0,20.8,3.6,38.8,10.7,53.8
		c7.1,15,17.2,26.6,30.3,34.6c13.1,8,28.4,12,45.9,12c11.1,0,21.1-1.8,30.2-5.4c9-3.6,16.5-9.5,22.4-17.8c0.6-0.8,1.1-1.7,1.7-2.6
		l4.1,21.7h19.5h13.2h44.7l9.4-33.7h57l9.7,33.7h59.8l-4.3-13.2c0.9,0.7,1.7,1.4,2.7,2.1c14.4,10.1,33.2,15.2,56.4,15.2
		c14.6,0,27.9-2.2,40-6.6c11.8-4.3,21.4-10.9,28.6-19.6c0,0.4-0.1,0.8-0.1,1.3c0,7.7,2.5,13.7,7.6,18c5.1,4.2,12.3,6.4,21.7,6.4
		c9.4,0,16.6-2.1,21.7-6.4c5.1-4.2,7.6-10.2,7.6-18C636.2,258.7,633.6,252.6,628.6,248.4z M356,212.6h-18.3l18-65h0.8l18,65H356z
		 M590.6,101.2h-10.4v-5.3h27.2v5.3H597v26.6h-6.3V101.2z M647.4,95.9v32h-5.9V102l-8.8,25.8h-5.1l-8.9-25.8v25.8h-5.9v-32h9.1
		l8.2,22.9l8.2-22.9H647.4z M175.3,401.8l72.8,116.5h-29.6l-60.1-97l-33.1,38.3l0.5,58.7h-26l0.6-96l-0.6-95.7h26l-0.8,95.7l0,2.5
		l83.5-98.3h31.8L175.3,401.8z M284,329.2c2.5,2.5,3.7,6.2,3.7,11.2c0,5.2-1.2,9-3.7,11.5c-2.5,2.5-6.2,3.7-11.2,3.7
		c-5,0-8.7-1.2-11.2-3.7c-2.5-2.5-3.7-6.3-3.7-11.5c0-5,1.2-8.7,3.7-11.2c2.5-2.5,6.2-3.7,11.2-3.7
		C277.7,325.5,281.5,326.7,284,329.2z M284.9,372.8l-0.6,72.8l0.6,72.8h-24.3l0.6-72.8l-0.6-72.8c5.5,0,9.6,0,12.3,0
		C275.6,372.8,279.6,372.8,284.9,372.8z M392,516.9c-4.4,1.7-9.1,3-14.1,4c-5,1-10.1,1.5-15.2,1.5c-13.1,0-22.8-2.5-29-7.5
		c-6.3-5-10.2-11.2-11.8-18.5c-1.6-7.4-2.4-17-2.4-28.8v-1.1v-75l-22.1,0.6v-19.4h22.1V326h24.3v46.8h44.8v19.4l-44.8-0.6v78.3
		c0,7.7,0.6,13.9,1.7,18.5c1.1,4.6,3.2,8.1,6.2,10.5c3,2.4,7.5,3.6,13.4,3.6c8.1,0,15.6-1.2,22.4-3.6L392,516.9z"/>
</g>
</svg>
