<?xml version="1.0" encoding="utf-8"?>
<!-- Generator: Adobe Illustrator 27.2.0, SVG Export Plug-In . SVG Version: 6.00 Build 0)  -->
<svg version="1.1" id="Layer_1" xmlns="http://www.w3.org/2000/svg" xmlns:xlink="http://www.w3.org/1999/xlink" x="0px" y="0px"
	 viewBox="0 0 1000 1000" style="enable-background:new 0 0 1000 1000;" xml:space="preserve">
<style type="text/css">
	.st0{fill:#FFFFFF;}
</style>
<g>
	
		<rect id="Rectangle_154" x="673.3" y="467" transform="matrix(0.7071 -0.7071 0.7071 0.7071 -289.6797 699.3487)" class="st0" width="52.1" height="464.6"/>
	<path id="Path_148" class="st0" d="M558.5,186.2C455.7,83.3,289,83.3,186.2,186.1s-102.8,269.5,0,372.3s269.5,102.8,372.3,0
		c0,0,0,0,0,0C661.2,455.6,661.3,289,558.5,186.2 M225,519.6c-81.3-81.4-81.3-213.3,0-294.6s213.3-81.3,294.6,0
		c81.3,81.3,81.3,213.2,0,294.6C438.3,601,306.4,601,225,519.6C225,519.6,225,519.6,225,519.6"/>
</g>
</svg>
