<?xml version="1.0" encoding="utf-8"?>
<!-- Generator: Adobe Illustrator 26.5.0, SVG Export Plug-In . SVG Version: 6.00 Build 0)  -->
<svg version="1.1" id="Layer_1" xmlns="http://www.w3.org/2000/svg" xmlns:xlink="http://www.w3.org/1999/xlink" x="0px" y="0px"
	 viewBox="0 0 1117.6 927.4" style="enable-background:new 0 0 1117.6 927.4;" xml:space="preserve">
<style type="text/css">
	.st0{fill:#FFFFFF;}
</style>
<g id="Layer_1_00000156589099554393912230000002041270386890230432_">
</g>
<g id="Isolation_Mode">
	<path class="st0" d="M813.1,516.9c-4.8-3.9-11.6-5.8-20.4-5.8c-7.7,0-13.9,1.5-18.5,4.5c1.1-4.3,1.7-8.9,1.7-13.8
		c0-10.9-2.3-20.2-7-27.8c-4.7-7.6-12-13.9-22.1-18.8c-10-4.9-23.1-8.7-39.2-11.3c-8.1-1.6-14.3-3.2-18.6-4.8
		c-4.2-1.6-7.1-3.6-8.7-6c-1.6-2.3-2.3-5.2-2.3-8.7c0-4.5,1.7-8,5.1-10.5c3.4-2.5,8.4-3.8,14.9-3.8c8.8,0,15.9,2.2,21.3,6.5
		c5.2,4.2,8.3,9.8,9.3,16.7l43.2-11.2l0,0c-3.5-16.3-11.7-29-24.7-38.3s-30.4-13.9-52.2-13.9c-14,0-26.1,2.1-36.1,6.2
		c-10,4.2-17.8,10.3-23.2,18.6c-5.5,8.2-8.2,18.2-8.2,30c0,17.1,5.1,30,15.3,38.6s24.5,14.4,42.9,17.5c10.9,1.7,19.2,3.6,24.8,5.5
		s9.5,4.1,11.7,6.5s3.2,5.4,3.2,8.8c0,5-2.1,8.9-6.4,11.6c-4.2,2.7-10.3,4-18.1,4c-10.4,0-18.7-2-24.8-6.1c-6.1-4-10.4-11-13-21.1
		l-31.8,8.3l-10.4-31.7L591,373.7h-65.2l-29.9,92.7l-16,49.2V502l0.3-48h-80.1v31.4h33.2l0,0c-1,9-3.5,16.1-7.7,21.3
		c-5.5,6.8-13.5,10.1-24,10.1c-8,0-14.5-1.9-19.6-5.8c-5.1-3.9-9-9.8-11.6-17.7c-2.6-7.9-3.9-17.7-3.9-29.5
		c0-11.3,1.3-20.7,3.8-28.4c2.5-7.7,6.3-13.5,11.4-17.3s11.3-5.7,18.6-5.7c8.8,0,16.1,2.7,21.9,8.1c5.6,5.2,9.3,13.5,11.3,24.8
		l46.7-12.1c-1.7-12.8-6-23.9-12.9-33.4c-6.8-9.4-15.9-16.8-27.1-22.1c-11.3-5.3-24.4-7.9-39.5-7.9c-18.5,0-34.3,3.7-47.4,11
		c-13.1,7.4-23.1,18-30,31.9s-10.4,30.8-10.4,50.5c0,19.6,3.3,36.4,10,50.5s16.1,24.9,28.4,32.5c12.3,7.5,26.7,11.3,43.1,11.3
		c10.4,0,19.8-1.7,28.3-5.1c8.5-3.4,15.5-9,21-16.8c0.6-0.8,1.1-1.6,1.6-2.4l3.9,20.3h18.3h12.4h41.9l8.8-31.7h53.5l9.1,31.7h56.1
		l-4-12.4c0.8,0.7,1.6,1.4,2.5,2c13.5,9.5,31.2,14.3,53,14.3c13.7,0,26.2-2.1,37.5-6.2c11.1-4.1,20.1-10.2,26.9-18.4
		c0,0.4,0,0.8,0,1.2c0,7.3,2.4,12.9,7.1,16.9c4.8,4,11.6,6,20.4,6s15.6-2,20.4-6c4.8-4,7.1-9.6,7.1-16.9
		C820.2,526.6,817.9,520.8,813.1,516.9z M557.2,483.3h-17.1l16.9-61h0.8l16.9,61H557.2z M777.5,378.7h-9.8v-5h25.6v5h-9.8v25h-6
		V378.7z M830.8,373.7v30h-5.5v-24.2l-8.3,24.2h-4.8l-8.4-24.2v24.2h-5.5v-30h8.6l7.7,21.5l7.7-21.5H830.8z M142,506.6l22.6-3.4
		l0.6,4.1l-20.6,2.8l4,27.4l20.5-3.1l0.6,4.1l-22.7,3.1l-22.7,3.5l-0.6-4.1l21.3-2.9l-4-27.4l-21.3,3.2l-0.6-4.1L142,506.6z
		 M150.7,556.5l22.2-5.7l1,4l-22.2,5.4l-22.2,5.7l-1-4L150.7,556.5z M137.9,588.3c0.8-3.5,2.5-6.6,5.3-9.4c2.8-2.8,6.5-5,11-6.7
		s8.8-2.4,12.8-2.2c4,0.3,7.4,1.5,10.3,3.6c2.9,2.2,5.1,5.2,6.5,9c1.8,4.8,1.9,9.1,0.4,13s-4.2,7-8.2,9.3l-2.2-3.1
		c3.2-1.9,5.5-4.4,6.8-7.5s1.2-6.6-0.2-10.4c-1.1-3.1-2.9-5.4-5.3-7.1c-2.4-1.7-5.3-2.6-8.6-2.7c-3.3-0.1-6.9,0.6-10.8,2
		c-3.9,1.5-7,3.3-9.4,5.6s-4,4.8-4.7,7.6s-0.5,5.7,0.7,8.8c1.6,4.1,4.1,7,7.6,8.5s8,1.4,13.6-0.5l-6-15.5l3.3-1.3l7.1,19l-10.6,3.9
		l-10.8,4.6l-1.1-3l7.6-3.4c-3.2-0.1-6-1.2-8.5-3.1c-2.5-1.9-4.3-4.6-5.6-8.1C137.4,595.4,137.1,591.8,137.9,588.3z M172.3,617.5
		l19.6-11.9l2.1,3.5l-17.9,10.6l14.2,23.8l17.8-10.8l2.1,3.5l-19.7,11.6l-19.6,12l-2.1-3.5l18.5-10.9l-14.2-23.8l-18.4,11.2
		l-2.1-3.5L172.3,617.5z M203.1,694.9c-1-3.5-0.8-7.2,0.4-10.9c1.2-3.8,3.5-7.4,6.8-11s6.8-6.1,10.5-7.6s7.3-1.9,10.9-1.2
		c3.6,0.7,6.9,2.5,10,5.3c3.1,2.9,5.1,6.1,6.1,9.6s0.8,7.1-0.4,10.9c-1.2,3.7-3.5,7.4-6.9,11c-3.1,3.4-6.4,5.8-9.9,7.4
		c-3.5,1.5-6.9,2.1-10.3,1.7l2.9,12.9l-4.2-1l-3.1-13.2c-2.4-0.9-4.6-2.4-6.8-4.4C206.1,701.6,204.1,698.4,203.1,694.9z M207.5,685
		c-1.1,3.1-1.3,6.2-0.6,9c0.7,2.9,2.3,5.5,4.8,7.8s5.2,3.7,8.1,4.2c2.9,0.5,5.9,0.1,9-1.2s6-3.5,8.9-6.6c4.4-4.7,6.7-9.3,6.9-14
		c0.3-4.6-1.5-8.7-5.2-12.2c-2.5-2.3-5.1-3.7-8.1-4.1c-2.9-0.5-5.9-0.1-9,1.2s-6,3.5-8.9,6.6C210.6,678.8,208.6,681.9,207.5,685z
		 M241,724.2c-0.6-4.4,0.9-9.4,4.5-14.8l7.9-11.8l6.8-10.7l3.4,2.2l-7.1,10.6l-7.9,12.2c-5.8,9-5,15.9,2.4,20.7s14,2.8,19.9-6.1
		l8.1-12.1l6.8-10.7l3.4,2.2l-7.1,10.6l-7.6,11.9c-3.6,5.6-7.5,8.9-11.8,10.1c-4.3,1.2-8.9,0.2-13.7-3
		C244.3,732.4,241.6,728.6,241,724.2z M291.5,732.7l17.8-16.9l3.6,1.7l-1.7,24.5l-1.4,24.8l-4-1.9l1.2-14.3l-9.7-4.7l-9.7-4.5
		l-10.3,10l-3.9-1.9L291.5,732.7z M298.6,743l8.7,4.1l1.8-26L309,721l-19,17.9L298.6,743z M329.8,749.7l7.4-21.7l3.9,1.3l-7.7,21.6
		l-6.2,18.4l22.5,7.8l-1.2,3.4l-26.3-9.1L329.8,749.7z M368.7,762.2l5.9-22.1l4,1.1l-6.2,22l-6,22.2l-4-1.1L368.7,762.2z
		 M399.3,769.7l3.9-18.9l-14.4-3.1l0.7-3.5l32.9,7l-0.7,3.5l-14.5-3.1l-4.1,18.9l-4.6,22.5l-4-0.9L399.3,769.7z M440.8,783.2
		l-12.2-30.9l4.5,0.6l10.2,26.1h0.1l17.2-22.3l4.4,0.6l-20.3,26.3l-2.2,16.8l-4.1-0.6L440.8,783.2z M497.7,783.2l1-22.9l16.3,0.8
		c5.3,0.3,9.3,1.5,11.9,3.9c2.7,2.3,3.9,5.5,3.7,9.5c-0.1,2.9-1,5.2-2.6,7s-3.8,3.1-6.6,3.7c2.3,0.9,3.9,2.2,4.9,4.1
		c1,1.9,1.6,4.5,1.6,7.9c0.1,3.1,0.2,5.5,0.4,7c0.1,1.5,0.4,2.7,0.7,3.5l-4.1-0.2c-0.3-0.7-0.5-1.8-0.6-3.3s-0.2-3.9-0.3-7.1
		c0-2.7-0.5-4.8-1.3-6.2s-1.9-2.4-3.4-2.9s-3.5-0.9-6-1l-12-0.6l-0.8,19.9l-4.2-0.2L497.7,783.2z M513.9,783.5
		c3.9,0.2,6.9-0.5,9.1-2.2c2.2-1.6,3.4-3.9,3.5-6.9c0.1-2.9-0.8-5.2-2.7-7c-1.9-1.7-4.8-2.7-8.8-2.9l-12.6-0.6l-1,18.9L513.9,783.5z
		 M545.8,785.1l-0.2-22.9l30.4-0.1v3.6l-26.3,0.1v16.9l24.9-0.1v3.6l-24.9,0.1l0.1,18.3l27-0.1v3.6l-31,0.1V785.1z M591.2,784.6
		l-1.2-22.9l4.1-0.2l0.9,22.9l1,19.4l23.8-1.1l0.2,3.6l-27.8,1.3L591.2,784.6z M633.1,782.1l-2.1-22.8l4.1-0.3l1.8,22.8l2.1,22.9
		l-4,0.3L633.1,782.1z M659.5,779.5l5.7-23.9l3.9-0.5l11.9,21.5l12.4,21.5l-4.4,0.6l-6.8-12.6l-10.7,1.4l-10.6,1.5l-3.2,14l-4.3,0.6
		L659.5,779.5z M671.1,784.3l9.5-1.3l-12.7-22.8h-0.1l-6.1,25.3L671.1,784.3z M702.2,773.2l-4.9-22.4l17.5-3.7
		c4.5-1,8.1-0.8,10.9,0.6c2.8,1.3,4.5,3.9,5.3,7.7c0.6,2.9,0.4,5.4-0.7,7.5c-1.1,2.1-2.9,3.6-5.5,4.7v0.2c3.1-0.3,5.8,0.2,8,1.7
		s3.6,3.8,4.3,7c0.8,3.9,0.1,7.2-2.2,10c-2.3,2.7-5.8,4.6-10.6,5.6l-17.5,3.7L702.2,773.2z M718.8,767.2c3.6-0.8,6.1-2.1,7.4-3.9
		c1.3-1.8,1.7-4.1,1.2-6.6c-0.6-2.8-1.9-4.7-4-5.7s-4.8-1.1-8-0.4l-13.3,2.8l3.4,16.7L718.8,767.2z M710.1,791.4l13.5-2.9
		c3.7-0.8,6.4-2.2,8.1-4.2c1.7-2,2.2-4.4,1.6-7.4c-1.3-5.9-5.8-8-13.7-6.3l-13.3,2.8L710.1,791.4z M747.5,762.8l-6.8-21.9l3.9-1.2
		l6.4,22l5.7,18.5l22.8-6.9l1,3.4l-26.7,8.1L747.5,762.8z M785.3,750.7l-8.8-21.1l28.1-11.5l1.4,3.3l-24.4,10L788,747l23.1-9.5
		l1.4,3.3l-23.1,9.5l7,16.9l25-10.3l1.4,3.3L793.9,772L785.3,750.7z M858.2,738.1c-3.8-0.4-7.1-2.3-10.1-5.6l2.5-2.7
		c2.7,2.7,5.4,4.2,8.2,4.6c2.8,0.4,6.1-0.7,9.9-3.2c3.2-2.1,5.2-4.4,5.9-7c0.8-2.5,0.3-5-1.2-7.4c-1.4-2.2-3.4-3.3-5.8-3.5
		c-2.4-0.2-5.8,0.6-10.3,2.3c-5.2,2-9.4,2.8-12.4,2.4c-3.1-0.4-5.6-2.1-7.5-5c-2.1-3.1-2.6-6.3-1.7-9.4c0.9-3.1,3.3-6,7.1-8.5
		c4.1-2.7,7.9-3.9,11.4-3.5c3.6,0.4,6.7,2,9.5,4.9l-2.6,2.7c-2.1-2.3-4.6-3.6-7.3-3.9c-2.8-0.3-5.8,0.6-9,2.7
		c-2.8,1.8-4.5,3.9-5.2,6.1c-0.7,2.2-0.4,4.4,1,6.5s3.3,3.3,5.7,3.4c2.4,0.1,5.7-0.7,10.2-2.4c3.6-1.4,6.6-2.2,9.1-2.5
		s4.6,0,6.4,0.9c1.8,0.9,3.4,2.3,4.7,4.4c2.2,3.3,2.8,6.8,1.7,10.3s-3.6,6.6-7.7,9.3C866.1,737.2,861.9,738.5,858.2,738.1z
		 M879.2,698.6l-15.4-16.9l22.5-20.3l2.4,2.7l-19.5,17.6l11.3,12.6l18.5-16.7l2.4,2.7L882.9,697l12.3,13.5l20-18.1l2.4,2.7l-23,20.8
		L879.2,698.6z M908.6,670.9l-18-14.1l10.1-12.8c3.3-4.1,6.6-6.6,10.1-7.5c3.4-0.8,6.7,0,9.9,2.5c2.2,1.8,3.7,3.8,4.2,6.2
		c0.6,2.3,0.3,4.9-0.8,7.6c2-1.3,4.1-1.9,6.2-1.6c2.1,0.3,4.6,1.4,7.4,3.3c2.6,1.7,4.6,3,5.9,3.8c1.3,0.8,2.4,1.3,3.3,1.4l-2.5,3.2
		c-0.7-0.2-1.7-0.6-3-1.4c-1.3-0.8-3.3-2.1-5.9-3.9c-2.3-1.6-4.2-2.4-5.8-2.6c-1.6-0.2-3.1,0.2-4.3,1.1c-1.3,0.9-2.7,2.3-4.3,4.3
		l-7.4,9.4l15.7,12.2l-2.6,3.3L908.6,670.9z M918.3,657.9c2.4-3,3.6-5.9,3.6-8.7s-1.2-5.1-3.5-6.9c-2.3-1.8-4.7-2.4-7.2-1.9
		c-2.5,0.6-5,2.4-7.4,5.5l-7.8,9.9l14.8,11.8L918.3,657.9z M936.2,633.3l-24.4-3.1l2.1-3.9L938,630l19.2,2.6l0.1-0.1l-12.6-14.7
		l-16.2-18.2l2.1-3.8l15.8,18.8l16,18.5l-1.9,3.5L936.2,633.3z M953.9,597.1l-21.3-8.3l1.5-3.8l21.2,8.6l21.4,8.4l-1.5,3.8
		L953.9,597.1z M982.8,578.7c-2.7,2.4-6,3.9-9.9,4.6c-3.9,0.6-8.2,0.3-12.9-1s-8.5-3.2-11.6-5.7c-3-2.5-5.1-5.5-6.2-8.9
		c-1.1-3.4-1.1-7.1,0-11c1.3-4.9,3.7-8.5,7.2-10.8s7.5-3.2,12.1-2.8v3.8c-3.7-0.4-7,0.3-9.9,2.1s-4.8,4.6-5.9,8.4
		c-0.9,3.2-0.8,6.1,0.1,8.8c0.9,2.7,2.7,5.1,5.3,7.2c2.6,2.1,5.9,3.6,9.9,4.7c4,1.1,7.7,1.4,11,0.9s6.1-1.6,8.3-3.5s3.8-4.4,4.6-7.6
		c1.1-4,0.8-7.6-1-10.5c-1.7-3-4.6-5.3-8.6-7.1l1.9-3.4c4.7,2.1,8,5.1,10,8.8c2,3.8,2.4,8.1,1,13.1
		C987.3,573.1,985.5,576.3,982.8,578.7z M971.8,534.6l-22.7-2.9l4.1-30.1l3.5,0.5l-3.5,26.1l16.7,2.3l3.3-24.7l3.5,0.5l-3.3,24.7
		l18.1,2.4l3.6-26.7l3.5,0.5l-4.1,30.7L971.8,534.6z M975.7,420.8l-22.6,3.4l-0.6-4.1l20.6-2.8l-4-27.4l-20.5,3.1l-0.6-4.1l22.7-3.1
		l22.7-3.5l0.6,4.1l-21.3,2.9l4,27.4l21.3-3.2l0.6,4.1L975.7,420.8z M966.9,370.9l-22.2,5.7l-1-4l22.2-5.4l22.2-5.7l1,4L966.9,370.9
		z M979.8,339.1c-0.8,3.5-2.5,6.6-5.3,9.4s-6.5,5-11,6.7s-8.8,2.4-12.8,2.2c-4-0.3-7.4-1.5-10.3-3.6c-2.9-2.2-5.1-5.2-6.5-9
		c-1.8-4.8-1.9-9.1-0.4-13s4.2-7,8.2-9.3l2.2,3.1c-3.2,1.9-5.5,4.4-6.8,7.5s-1.2,6.6,0.2,10.4c1.1,3.1,2.9,5.4,5.3,7.1
		c2.4,1.7,5.3,2.6,8.6,2.7s6.9-0.6,10.8-2c3.9-1.5,7-3.3,9.4-5.6c2.4-2.3,4-4.8,4.7-7.6c0.7-2.8,0.5-5.7-0.7-8.8
		c-1.6-4.1-4.1-7-7.6-8.5s-8-1.4-13.6,0.5l6,15.5l-3.3,1.3l-7.1-19l10.6-3.9l10.8-4.6l1.1,3l-7.6,3.4c3.2,0.1,6,1.2,8.5,3.1
		s4.3,4.6,5.6,8.1C980.2,332,980.6,335.7,979.8,339.1z M945.3,309.9l-19.6,11.9l-2.1-3.5l17.9-10.6l-14.2-23.8l-17.8,10.8l-2.1-3.5
		l19.7-11.6l19.6-12l2.1,3.5L930.3,282l14.2,23.8l18.4-11.2l2.1,3.5L945.3,309.9z M914.5,232.5c1,3.5,0.8,7.2-0.4,10.9
		c-1.2,3.8-3.5,7.4-6.8,11s-6.8,6.1-10.5,7.6s-7.3,1.9-10.9,1.2c-3.6-0.7-6.9-2.5-10-5.3c-3.1-2.9-5.1-6.1-6.1-9.6
		s-0.8-7.1,0.4-10.9c1.2-3.7,3.5-7.4,6.9-11c3.1-3.4,6.4-5.8,9.9-7.4c3.5-1.5,6.9-2.1,10.3-1.7l-2.9-12.9l4.3,0.8l3.1,13.2
		c2.4,0.9,4.6,2.4,6.8,4.4C911.5,225.8,913.6,229,914.5,232.5z M910.2,242.4c1.1-3.1,1.3-6.2,0.6-9c-0.7-2.9-2.3-5.5-4.8-7.8
		s-5.2-3.7-8.1-4.2c-2.9-0.5-5.9-0.1-9,1.2s-6,3.5-8.9,6.6c-4.4,4.7-6.7,9.3-6.9,14c-0.3,4.6,1.5,8.7,5.2,12.2
		c2.5,2.3,5.1,3.7,8.1,4.1c2.9,0.5,5.9,0.1,9-1.2c3.1-1.3,6-3.5,8.9-6.6C907.1,248.6,909.1,245.5,910.2,242.4z M876.7,203.2
		c0.6,4.4-0.9,9.4-4.5,14.8l-7.9,11.8l-6.8,10.7l-3.4-2.2l7.1-10.6l7.9-12.2c5.8-9,5-15.9-2.4-20.7s-14-2.8-19.9,6.1l-8.1,12.1
		l-6.8,10.7l-3.4-2.2l7.1-10.6L843,199c3.6-5.6,7.5-8.9,11.8-10.1c4.3-1.2,8.9-0.2,13.7,3C873.4,195,876.1,198.8,876.7,203.2z
		 M826.2,194.7l-17.8,16.9l-3.6-1.7l1.7-24.5l1.4-24.8l4,1.9l-1.2,14.3l9.7,4.7l9.7,4.5l10.3-10l3.9,1.9L826.2,194.7z M819.1,184.4
		l-8.7-4.1l-1.8,26l0.1,0.1l19-17.9L819.1,184.4z M787.9,177.7l-7.4,21.7l-3.9-1.3l7.7-21.6l6.2-18.4l-22.5-7.8l1.2-3.4l26.3,9.1
		L787.9,177.7z M749,165.2l-5.9,22.1l-4-1.1l6.2-22l6-22.2l4,1.1L749,165.2z M718.3,157.7l-3.9,18.9l14.4,3.1l-0.7,3.5l-32.9-7
		l0.7-3.5l14.5,3.1l4.1-18.9l4.6-22.5l4,0.8L718.3,157.7z M676.9,144.2l12.2,30.9l-4.5-0.6l-10.2-26.1h-0.1l-17.2,22.3l-4.4-0.6
		l20.3-26.3l2.2-16.8l4.1,0.6L676.9,144.2z M619.9,144.2l-1,22.9l-16.3-0.8c-5.3-0.3-9.3-1.5-11.9-3.9c-2.7-2.3-3.9-5.5-3.7-9.5
		c0.1-2.9,1-5.2,2.6-7s3.8-3.1,6.6-3.7c-2.3-0.9-3.9-2.2-4.9-4.1c-1-1.9-1.6-4.5-1.6-7.9c-0.1-3.1-0.2-5.5-0.4-7
		c-0.1-1.5-0.4-2.7-0.7-3.5l4.1,0.2c0.3,0.7,0.5,1.8,0.6,3.3s0.2,3.9,0.3,7.1c0,2.7,0.5,4.8,1.3,6.2s1.9,2.4,3.4,2.9s3.5,0.9,6,1
		l12,0.6l0.8-19.9l4.2,0.2L619.9,144.2z M603.8,143.9c-3.9-0.2-6.9,0.5-9.1,2.2c-2.2,1.6-3.4,3.9-3.5,6.9c-0.1,2.9,0.8,5.2,2.7,7
		c1.9,1.7,4.8,2.7,8.8,2.9l12.6,0.6l1-18.9L603.8,143.9z M571.9,142.3l0.2,22.9l-30.4,0.1v-3.6l26.3-0.1v-16.9l-24.9,0.1v-3.6
		l24.9-0.1l-0.1-18.3l-27,0.1v-3.6l31-0.1V142.3z M526.4,142.8l1.2,22.9l-4.1,0.2l-0.9-22.9l-1-19.4l-23.8,1.1l-0.2-3.6l27.8-1.3
		L526.4,142.8z M484.5,145.3l2.1,22.8l-4.1,0.3l-1.8-22.8l-2.1-22.9l4.1-0.3L484.5,145.3z M458.2,147.9l-5.7,23.9l-3.9,0.5
		l-11.9-21.5l-12.4-21.5l4.4-0.6l6.8,12.6l10.7-1.4l10.6-1.5l3.2-14l4.3-0.6L458.2,147.9z M446.6,143.1l-9.5,1.3l12.7,22.8h0.1
		l6.1-25.3L446.6,143.1z M415.4,154.2l4.9,22.4l-17.5,3.7c-4.5,1-8.1,0.8-10.9-0.6c-2.8-1.3-4.6-3.9-5.3-7.7
		c-0.6-2.9-0.4-5.4,0.7-7.5s2.9-3.6,5.5-4.7v-0.2c-3.1,0.3-5.8-0.2-8-1.7s-3.6-3.8-4.3-7c-0.8-3.9-0.1-7.2,2.2-10
		c2.3-2.7,5.8-4.6,10.6-5.6l17.5-3.7L415.4,154.2z M407.5,136l-13.5,2.9c-3.7,0.8-6.4,2.2-8.1,4.2s-2.2,4.4-1.6,7.4
		c1.3,5.9,5.8,8,13.7,6.3l13.3-2.8L407.5,136z M398.9,160.2c-3.6,0.8-6.1,2.1-7.4,3.9c-1.3,1.8-1.7,4.1-1.2,6.6
		c0.6,2.8,1.9,4.7,4,5.7s4.8,1.1,8,0.4l13.3-2.8l-3.4-16.7L398.9,160.2z M370.1,164.6l6.7,21.9l-3.9,1.2l-6.4-22l-5.7-18.5
		l-22.8,6.9l-1-3.4l26.7-8.1L370.1,164.6z M332.4,176.7l8.8,21.1l-28.1,11.5l-1.4-3.3l24.3-10l-6.4-15.6l-23.1,9.5l-1.4-3.3
		l23.1-9.5l-7-16.9l-25,10.3l-1.4-3.3l28.7-11.8L332.4,176.7z M259.5,189.3c3.8,0.4,7.1,2.3,10.1,5.6l-2.5,2.7
		c-2.7-2.7-5.4-4.2-8.2-4.6c-2.8-0.4-6.1,0.7-9.9,3.2c-3.2,2.1-5.2,4.4-5.9,7c-0.8,2.5-0.3,5,1.2,7.4c1.4,2.2,3.4,3.3,5.8,3.5
		c2.4,0.2,5.8-0.6,10.3-2.3c5.2-2,9.4-2.8,12.4-2.4c3.1,0.4,5.6,2.1,7.5,5c2.1,3.1,2.6,6.3,1.7,9.4c-0.9,3.1-3.3,6-7.1,8.5
		c-4.1,2.7-7.9,3.9-11.5,3.5s-6.7-2-9.5-4.9l2.6-2.7c2.1,2.3,4.6,3.6,7.3,3.9c2.8,0.3,5.8-0.6,9-2.7c2.8-1.8,4.5-3.9,5.2-6.1
		c0.7-2.2,0.4-4.4-1-6.5s-3.3-3.3-5.7-3.4c-2.4-0.1-5.8,0.7-10.2,2.4c-3.6,1.4-6.6,2.2-9.1,2.5s-4.6,0-6.4-0.9
		c-1.8-0.9-3.4-2.3-4.7-4.4c-2.2-3.3-2.8-6.8-1.7-10.3s3.6-6.6,7.7-9.3C251.6,190.2,255.7,188.9,259.5,189.3z M238.4,228.8
		l15.4,16.9L231.3,266l-2.4-2.7l19.5-17.6l-11.3-12.6l-18.5,16.7l-2.4-2.7l18.5-16.7L222.5,217l-20,18.1l-2.4-2.7l23-20.8
		L238.4,228.8z M209,256.5l18,14.1l-10.1,12.8c-3.3,4.1-6.6,6.6-10.1,7.5c-3.4,0.8-6.7,0-9.9-2.5c-2.2-1.8-3.7-3.8-4.2-6.2
		c-0.6-2.3-0.3-4.9,0.8-7.6c-2,1.3-4.1,1.9-6.2,1.6c-2.2-0.3-4.6-1.4-7.4-3.3c-2.6-1.7-4.6-3-5.9-3.8c-1.3-0.8-2.4-1.3-3.2-1.4
		l2.5-3.2c0.7,0.2,1.7,0.6,3,1.4s3.3,2.1,5.9,3.9c2.3,1.6,4.2,2.4,5.8,2.6s3.1-0.2,4.3-1.1c1.3-0.9,2.7-2.3,4.3-4.3l7.4-9.4
		l-15.7-12.2l2.6-3.3L209,256.5z M199.3,269.5c-2.4,3-3.6,5.9-3.6,8.7c0,2.8,1.2,5.1,3.5,6.9s4.7,2.4,7.2,1.9c2.5-0.6,5-2.4,7.4-5.5
		l7.8-9.9L207,259.8L199.3,269.5z M181.5,294.1l24.4,3.1l-2.1,3.9l-24.1-3.7l-19.2-2.6l-0.1,0.1l12.6,14.7l16.2,18.2l-2.1,3.8
		l-15.8-18.8l-16-18.5l1.9-3.5L181.5,294.1z M163.7,330.3l21.3,8.3l-1.5,3.8l-21.2-8.6l-21.4-8.3l1.5-3.8L163.7,330.3z M134.8,348.7
		c2.7-2.4,6-3.9,9.9-4.6s8.2-0.3,12.9,1s8.5,3.2,11.6,5.7c3,2.5,5.1,5.5,6.2,8.9c1.1,3.4,1.1,7.1,0,11c-1.3,4.9-3.7,8.5-7.2,10.8
		s-7.5,3.2-12.1,2.8v-3.8c3.7,0.4,7-0.3,9.9-2.1c2.9-1.8,4.8-4.6,5.9-8.4c0.9-3.2,0.8-6.1-0.1-8.8c-0.9-2.7-2.7-5.1-5.4-7.2
		c-2.6-2.1-5.9-3.6-9.9-4.7s-7.7-1.4-10.9-0.9c-3.3,0.5-6.1,1.6-8.3,3.5s-3.8,4.4-4.6,7.6c-1.1,4-0.8,7.6,1,10.5
		c1.7,3,4.6,5.3,8.6,7.1l-1.9,3.4c-4.7-2.1-8-5.1-10-8.8c-2-3.8-2.4-8.1-1-13.1C130.3,354.3,132.2,351.1,134.8,348.7z M145.9,392.8
		l22.7,2.9l-4.1,30.1l-3.5-0.5l3.5-26.1l-16.7-2.3l-3.3,24.7l-3.5-0.5l3.3-24.7l-18.1-2.4l-3.6,26.7l-3.5-0.5l4.1-30.7L145.9,392.8z
		 M504.5,867.2c-0.3,0-0.6,0-0.9,0c-10.3-0.6-19.5-9.4-28.3-17.9c-8.1-7.7-15.7-15.1-23.5-16c-8.6-1-18.6,4.8-28.3,10.4
		c-10.2,5.9-20.8,12.1-30.2,10.3c-10.3-2-18-12.2-25.6-22.1c-6.7-8.8-13-17.1-20.5-19.3c-8.2-2.4-19,1.4-29.4,5.1
		c-11.3,4-22.9,8.2-31.9,4.4c-9.7-4.1-15.1-15.8-20.3-27.2c-4.4-9.5-8.9-19.4-15.6-23.3c-7.2-4.2-18.3-3.3-29.1-2.4
		c-12.2,1-24.8,2-32.6-4.2l0,0c-7.1-5.6-7.9-17.4-8.7-28.8c-0.7-9.6-1.4-19.6-5.9-24.4c-4.7-5-14.8-6.3-24.5-7.6
		c-11.2-1.5-22.8-3-27.8-10.3c-5-7.2-2.4-18.6,0.1-29.6c2.2-9.6,4.5-19.5,1.4-25.6c-2.9-6-12-10.1-20.8-14.1
		c-10.4-4.7-21.1-9.6-24-18.2c-2.7-8.1,2.8-18.2,8.1-27.9c4.8-8.8,9.8-17.9,8.4-24.9c-1.3-6.4-9.1-12.6-16.7-18.7
		c-8.9-7.1-18.2-14.4-19-23.5c-0.8-8.4,6.3-16.5,13.8-25.2c6.6-7.7,13.5-15.6,13.5-22.9c0-7.2-6.9-15.2-13.5-22.8
		c-7.5-8.6-14.5-16.8-13.8-25.2c0.8-9.1,10-16.4,19-23.5c7.6-6,15.4-12.2,16.7-18.7c1.4-7-3.6-16.1-8.4-24.9
		C80.8,339,75.3,329,78,320.9c2.8-8.6,13.6-13.5,24-18.1c8.8-4,17.9-8.1,20.9-14.1c3.1-6.2,0.8-16.1-1.4-25.6
		c-2.5-11-5.1-22.3-0.1-29.6s16.6-8.8,27.8-10.3c9.7-1.3,19.8-2.6,24.5-7.6c4.6-4.8,5.3-14.8,5.9-24.5c0.8-11.4,1.6-23.1,8.7-28.8
		c7.8-6.2,20.4-5.2,32.6-4.2c10.8,0.9,21.9,1.8,29.1-2.4c6.7-3.9,11.3-13.8,15.6-23.3c5.2-11.4,10.6-23.1,20.3-27.2
		c9-3.7,20.6,0.4,31.9,4.4c10.4,3.7,21.2,7.5,29.4,5.1c7.5-2.2,13.8-10.5,20.5-19.3c7.5-9.9,15.3-20.1,25.5-22.1
		c9.4-1.8,20,4.3,30.2,10.2c9.7,5.6,19.7,11.4,28.3,10.4c7.8-0.9,15.4-8.2,23.5-16c8.9-8.5,18-17.3,28.3-17.9
		c9.5-0.5,19.2,6.9,28.5,14.1c8.9,6.8,18.1,13.9,26.8,13.9s17.9-7.1,26.8-13.9c9.3-7.2,19-14.6,28.5-14.1
		c10.3,0.6,19.5,9.4,28.3,17.9c8.1,7.8,15.7,15.1,23.5,16c8.6,1,18.6-4.8,28.3-10.4c10.2-5.9,20.8-12.1,30.2-10.2
		c10.3,2,18,12.2,25.5,22.1c6.7,8.8,13,17.1,20.5,19.3c8.2,2.4,19-1.4,29.4-5.1c11.3-4,22.9-8.1,31.9-4.4
		c9.7,4.1,15.1,15.8,20.3,27.2c4.4,9.5,8.9,19.4,15.6,23.3c7.2,4.2,18.4,3.3,29.1,2.4c12.2-1,24.8-2,32.6,4.2
		c7.1,5.7,7.9,17.4,8.7,28.8c0.7,9.6,1.3,19.6,5.9,24.5c4.7,5,14.8,6.3,24.5,7.6c11.2,1.5,22.7,3,27.8,10.3c5,7.2,2.4,18.6-0.1,29.6
		c-2.2,9.6-4.5,19.5-1.4,25.6c2.9,6,12,10.1,20.9,14c10.4,4.7,21.1,9.5,24,18.1c2.7,8.1-2.8,18.2-8.1,27.9
		c-4.8,8.8-9.8,17.9-8.4,24.9c1.3,6.4,9.1,12.6,16.7,18.6c8.9,7.1,18.2,14.4,19,23.5c0.8,8.4-6.3,16.5-13.8,25.2
		c-6.6,7.7-13.5,15.6-13.5,22.8c0,7.2,6.9,15.2,13.5,22.9c7.5,8.6,14.5,16.8,13.8,25.2c-0.8,9.1-10,16.4-19,23.5
		c-7.6,6-15.4,12.2-16.7,18.6c-1.4,7,3.6,16.1,8.4,24.9c5.3,9.7,10.8,19.7,8.1,27.9c-2.8,8.6-13.6,13.5-24,18.2
		c-8.8,4-17.9,8.1-20.8,14.1c-3.1,6.2-0.8,16.1,1.4,25.6c2.5,11,5.1,22.3,0.1,29.6s-16.6,8.8-27.8,10.3c-9.7,1.3-19.8,2.6-24.5,7.6
		c-4.6,4.8-5.3,14.8-5.9,24.5c-0.8,11.4-1.6,23.1-8.7,28.8c-7.8,6.2-20.4,5.2-32.6,4.2c-10.8-0.9-21.9-1.8-29.1,2.4
		c-6.7,3.9-11.3,13.8-15.6,23.3c-5.2,11.4-10.6,23.1-20.3,27.2c-8.9,3.7-20.6-0.4-31.9-4.4c-10.4-3.7-21.2-7.5-29.4-5.1
		c-7.5,2.2-13.8,10.5-20.5,19.3c-7.5,9.9-15.3,20.1-25.6,22.1c-9.4,1.8-20-4.3-30.2-10.3c-9.7-5.6-19.7-11.4-28.3-10.4
		c-7.8,0.9-15.4,8.2-23.5,16c-8.9,8.5-18,17.3-28.3,17.9c-9.6,0.5-19.2-6.9-28.5-14.1c-8.9-6.8-18.1-13.9-26.8-13.9
		s-17.9,7.1-26.8,13.9C523,860.1,513.7,867.2,504.5,867.2z M449.7,829.6c0.8,0,1.6,0,2.4,0.1c9.1,1.1,17.5,9.2,25.6,17
		c8.4,8,17,16.4,26,16.9c8.2,0.4,16.9-6.2,26.1-13.3c9.4-7.2,19.1-14.7,29-14.7s19.6,7.5,29,14.7c9.2,7.1,17.9,13.8,26.1,13.3
		c9-0.5,17.6-8.8,26-16.9c8.1-7.8,16.6-15.9,25.6-17c9.8-1.2,20.3,5,30.5,10.9c10.1,5.9,19.6,11.4,27.6,9.8
		c8.9-1.7,16.2-11.4,23.3-20.7c6.8-8.9,13.8-18.1,22.4-20.6c9.4-2.7,20.7,1.3,31.7,5.2c11.1,3.9,21.6,7.7,29.2,4.5
		c8.4-3.5,13.5-14.6,18.4-25.3c4.6-10.1,9.4-20.5,17.1-25c8.2-4.8,19.9-3.8,31.3-2.9c11.5,0.9,23.3,1.9,30-3.4
		c5.8-4.6,6.6-15.6,7.3-26.2c0.7-10.3,1.4-20.9,6.9-26.7c5.6-5.9,16.3-7.4,26.7-8.7c10.4-1.4,21.1-2.8,25.3-8.7
		c4.1-5.9,1.7-16.5-0.7-26.7c-2.3-10.2-4.8-20.7-1.1-28.1c3.5-7.1,13.2-11.5,22.6-15.8c9.7-4.4,19.7-8.9,22-16
		c2.2-6.6-2.9-15.9-7.9-24.9c-5.1-9.4-10.4-19.1-8.8-27.3c1.5-7.8,9.5-14.1,18-20.8c8.3-6.6,16.9-13.4,17.6-20.9
		c0.6-6.8-6.3-14.7-12.9-22.4c-7.1-8.2-14.4-16.7-14.4-25.3c0-8.6,7.3-17.1,14.4-25.3c6.6-7.7,13.5-15.6,12.9-22.4
		c-0.7-7.5-9.3-14.3-17.6-20.9c-8.5-6.7-16.5-13-18-20.8c-1.6-8.3,3.6-18,8.8-27.3c4.9-9,10-18.3,7.8-25c-2.3-7.1-12.3-11.6-22-15.9
		c-9.4-4.2-19.1-8.6-22.6-15.8c-3.6-7.3-1.2-17.9,1.1-28.1c2.3-10.2,4.8-20.8,0.6-26.7c-4.1-5.9-14.9-7.3-25.2-8.7
		c-10.4-1.4-21.1-2.8-26.7-8.7c-5.5-5.8-6.2-16.4-6.9-26.7c-0.7-10.6-1.5-21.5-7.3-26.2c-6.7-5.3-18.5-4.3-30-3.4
		c-11.4,0.9-23.1,1.9-31.3-2.8c-7.8-4.5-12.5-14.9-17.1-25c-4.9-10.7-10-21.8-18.4-25.3c-7.6-3.2-18.1,0.5-29.2,4.5
		c-11,3.9-22.3,7.9-31.7,5.2c-8.7-2.5-15.6-11.7-22.4-20.6c-7.1-9.3-14.4-19-23.3-20.7c-8-1.6-17.6,4-27.6,9.8
		c-10.2,5.9-20.7,12-30.5,10.9c-9.1-1.1-17.5-9.2-25.6-17c-8.4-8.1-17-16.4-26-16.9c-8.2-0.4-16.9,6.2-26.1,13.3
		c-9.4,7.2-19.1,14.7-29,14.7s-19.6-7.5-29-14.7c-9.2-7.1-17.9-13.7-26.1-13.3c-9,0.5-17.6,8.8-26,16.9c-8.1,7.8-16.6,15.9-25.6,17
		c-9.8,1.1-20.4-5-30.5-10.9C411.5,81,402,75.5,394,77c-8.9,1.7-16.2,11.4-23.3,20.7c-6.8,8.9-13.8,18.1-22.4,20.6
		c-9.4,2.7-20.7-1.3-31.7-5.2c-11.1-3.9-21.6-7.7-29.2-4.5c-8.4,3.5-13.5,14.6-18.4,25.3c-4.6,10.1-9.4,20.5-17.1,25
		c-8.2,4.8-19.9,3.8-31.3,2.9c-11.4-0.9-23.3-1.9-30,3.4c-5.8,4.6-6.6,15.6-7.3,26.2c-0.7,10.3-1.4,20.9-6.9,26.7
		c-5.6,6-16.3,7.4-26.7,8.7c-10.4,1.4-21.1,2.8-25.2,8.7c-4.1,5.9-1.7,16.5,0.6,26.7c2.3,10.2,4.7,20.7,1.1,28.1
		c-3.5,7.1-13.2,11.5-22.6,15.8c-9.7,4.4-19.7,8.9-22,15.9c-2.2,6.6,2.9,15.9,7.9,25c5.1,9.4,10.4,19.1,8.8,27.3
		c-1.5,7.8-9.5,14.1-18,20.8c-8.3,6.6-16.9,13.4-17.6,20.9c-0.6,6.8,6.3,14.8,12.9,22.4C82.7,446.6,90,455,90,463.7
		c0,8.6-7.3,17.1-14.4,25.3c-6.6,7.7-13.5,15.6-12.9,22.4c0.7,7.5,9.3,14.3,17.6,20.9c8.5,6.7,16.4,13,18,20.8
		c1.6,8.3-3.7,18-8.8,27.3c-4.9,9-10,18.3-7.9,24.9c2.3,7.1,12.3,11.6,22,16c9.4,4.2,19.1,8.6,22.6,15.8c3.6,7.4,1.2,17.9-1.1,28.1
		c-2.3,10.2-4.8,20.8-0.6,26.7c4.1,5.9,14.9,7.3,25.3,8.7c10.4,1.4,21.1,2.8,26.7,8.7c5.5,5.8,6.2,16.4,6.9,26.7
		c0.7,10.6,1.5,21.5,7.3,26.2l0,0c6.7,5.3,18.5,4.4,30,3.4c11.3-0.9,23.1-1.9,31.3,2.9c7.8,4.5,12.5,14.9,17.1,25
		c4.9,10.7,10,21.8,18.4,25.3c7.6,3.2,18.1-0.5,29.2-4.5c11-3.9,22.3-7.9,31.7-5.2c8.7,2.5,15.7,11.7,22.4,20.6
		c7.1,9.3,14.4,18.9,23.3,20.7c8,1.6,17.6-4,27.6-9.8C430.9,835.2,440.6,829.6,449.7,829.6z M558.8,731.4
		c-128.1,0-224-24.7-284.9-73.5c-14.9-11.9-36.5-31.4-53.5-65c-17.6-34.9-26.5-78.4-26.5-129.3c0-116.8,45.6-166.8,79.9-194.2
		c61.1-48.8,157-73.5,284.9-73.5c127.8,0,223.7,24.8,285,73.6c14.8,11.9,36.4,31.5,53.4,65.1c17.6,34.9,26.5,78.3,26.5,129.1
		c0,116.9-45.6,166.8-79.8,194.2C782.8,706.7,686.9,731.4,558.8,731.4z M558.8,199.6c-127.1,0-222.2,24.5-282.6,72.7
		c-33.7,27-78.5,76.1-78.5,191.4c0,50.3,8.8,93.3,26.1,127.6c16.6,32.9,37.8,52.1,52.4,63.7c60.4,48.3,155.4,72.8,282.7,72.8
		c127.2,0,222.3-24.5,282.7-72.8c33.7-26.9,78.5-76,78.5-191.3c0-50.2-8.8-93-26.1-127.4c-16.6-33-37.8-52.3-52.4-63.9
		C780.9,224.1,685.8,199.6,558.8,199.6z"/>
</g>
<g id="_x3C_Layer_x3E_">
</g>
</svg>
